<?xml version="1.0"?>
<svg width="1024" height="1024" xmlns="http://www.w3.org/2000/svg" xmlns:svg="http://www.w3.org/2000/svg" class="icon" version="1.1">
 <g class="layer">
  <title>Layer 1</title>
  <path d="m993.76,493.54l0,35c0,13.33 -6.04,26.66 -18.13,37.13c-140.15,121.43 -280.35,242.8 -420.49,364.22c-11.81,10.24 -25.81,15.5 -42.46,15.5l0,-35c16.65,0 30.65,-5.26 42.46,-15.5c140.14,-121.42 280.33,-242.8 420.49,-364.21c12.09,-10.48 18.13,-23.81 18.13,-37.14z" fill="#3f3f3f" id="svg_1" transform="matrix(1 0 0 1 0 0)"/>
  <path d="m30.24,528.37l0,-3.5l0,-1.75l0,-3.5l0,-3.5l0,-1.75l0,-3.5l0,-3.5l0,-1.75l0,-3.5l0,-3.5l0,-1.75l0,-3.5c0,14.7 6.7,29.31 19.04,40.02c138.45,120.06 277.04,239.99 415.56,360.02c13,11.26 28.74,16.46 47.85,16.99l0,35c-19.11,-0.53 -34.85,-5.73 -47.85,-16.99c-138.52,-120.03 -277.12,-239.96 -415.56,-360.02c-12.34,-10.71 -19.04,-25.32 -19.04,-40.02z" fill="#3f3f3f" id="svg_2" transform="matrix(1 0 0 1 0 0)"/>
  <path d="m510.79,76.6c16.26,0 32.54,5.36 44.94,16.1c139.95,121.19 279.9,242.37 419.82,363.58c24.24,21 24.29,53.42 0.08,74.4c-140.15,121.42 -280.35,242.8 -420.49,364.22c-11.81,10.24 -25.81,15.5 -42.45,15.5c-19.11,-0.53 -34.85,-5.73 -47.85,-16.99c-138.52,-120.03 -277.12,-239.96 -415.57,-360.02c-19.58,-16.99 -24.96,-43.81 -11.89,-65.26c3.92,-6.43 8.67,-11.82 14.46,-16.84c138.11,-119.56 276.18,-239.14 414.27,-358.72c12.29,-10.64 28.48,-15.97 44.68,-15.97z" fill="#3f3f3f" id="svg_3"/>
  <path d="m664.94,356.2l0,16.8c0,2.33 -0.75,3.36 -3.37,4.08c-76.6,21 -153.16,42.1 -229.73,63.16c-0.96,0.27 -1.98,0.43 -3.21,0.69l0,-16.8c1.23,-0.26 2.24,-0.42 3.21,-0.69c76.57,-21.06 153.13,-42.16 229.73,-63.16c2.62,-0.72 3.37,-1.75 3.37,-4.08z" fill="#DA4D5E" id="svg_4"/>
  <path d="m664.94,356.2l0,16.8c0,0.18 0,0.35 -0.01,0.52l0,-16.8c0.01,-0.17 0.01,-0.34 0.01,-0.52" fill="#DA4D5E" id="svg_5"/>
  <path d="m664.93,356.72l0,16.8c-0.06,0.93 -0.27,1.63 -0.73,2.17l0,-16.8c0.46,-0.55 0.67,-1.24 0.73,-2.17m-0.73,2.17l0,16.8a3.1,3.1 0 0 1 -0.71,0.61l0,-16.8c0.28,-0.19 0.52,-0.38 0.71,-0.61m-0.71,0.61l0,16.8a5.81,5.81 0 0 1 -1.08,0.52l0,-16.8a5.81,5.81 0 0 0 1.08,-0.52m-1.08,0.51l0,16.8c-0.26,0.1 -0.54,0.19 -0.84,0.27c-76.6,21 -153.16,42.1 -229.73,63.16c-0.96,0.27 -1.98,0.43 -3.21,0.69l0,-16.8c1.23,-0.27 2.24,-0.42 3.21,-0.69c76.57,-21.06 153.13,-42.16 229.73,-63.16c0.3,-0.08 0.58,-0.17 0.84,-0.27" fill="#DA4D5E" id="svg_6"/>
  <path d="m433.43,386.95l0,-0.03l0,-0.03l0,-0.04l0,-0.03l0,-0.03l0,-0.03l0,-0.03l0,-0.03l0,-1.94l0,-2.05l0,-2.13l0,-2.16l0,-2.17l0,-2.13l0,-2.04l0,-1.93c75.85,-20.8 151.68,-41.69 227.53,-62.56l0,0l0.87,-0.24c0.84,-0.22 1.72,-0.29 2.82,-0.48l0,16.8c-1.1,0.19 -1.98,0.26 -2.82,0.48c-76.14,20.95 -152.25,41.92 -228.4,62.8z" fill="#DA4D5E" id="svg_7"/>
  <path d="m664.65,306.88l0,16.8c-1.1,0.18 -1.98,0.25 -2.82,0.48c-76.72,21.1 -153.42,42.23 -230.15,63.27c-0.29,0.08 -0.55,0.16 -0.8,0.25l0,-16.8a10.7,10.7 0 0 1 0.8,-0.25c76.73,-21.04 153.43,-42.17 230.15,-63.27c0.84,-0.23 1.72,-0.3 2.82,-0.48" fill="#DA4D5E" id="svg_8"/>
  <path d="m664.65,306.88c0.09,1.02 0.23,1.9 0.23,2.76c0,1.94 0,3.88 0,5.82c0,4.85 0,9.7 0,14.55c0,8.73 0,17.46 0.06,26.19c0,2.33 -0.76,3.36 -3.37,4.08c-76.61,21 -153.16,42.1 -229.73,63.16c-0.97,0.27 -1.98,0.43 -3.21,0.69c-0.08,-1.09 -0.2,-1.96 -0.2,-2.83c0,-2.91 0,-5.82 0,-8.73l0,-11.64c0,-8.73 -0.01,-17.46 -0.06,-26.19c0,-2.29 0.66,-3.38 3.31,-4.11c76.73,-21.04 153.43,-42.17 230.14,-63.28c0.85,-0.22 1.73,-0.29 2.83,-0.47z" fill="#bfbfbf" id="svg_9" transform="matrix(1 0 0 1 0 0)"/>
  <path d="m664.64,383.06l0,16.8c-1.79,0.45 -3.45,0.84 -5.08,1.3c-75.57,20.81 -151.14,41.65 -226.75,62.36c-3.52,0.96 -4.48,2.26 -4.48,5.37l0,-16.8c0,-3.11 0.96,-4.41 4.48,-5.37c75.61,-20.71 151.18,-41.55 226.75,-62.36c1.63,-0.46 3.29,-0.85 5.08,-1.3z" fill="#DA4D5E" id="svg_10"/>
  <path d="m664.64,383.06l0,16.8c-1.79,0.45 -3.45,0.84 -5.08,1.3c-75.57,20.81 -151.14,41.65 -226.75,62.36c-0.44,0.12 -0.83,0.24 -1.19,0.38l0,-16.8c0.36,-0.14 0.76,-0.26 1.19,-0.38c75.61,-20.71 151.18,-41.55 226.75,-62.36c1.63,-0.46 3.29,-0.85 5.08,-1.3m-233.02,64.04l0,16.8a7.34,7.34 0 0 0 -1.42,0.67l0,-16.8a7.37,7.37 0 0 1 1.42,-0.67m-1.42,0.67l0,16.8a3.97,3.97 0 0 0 -0.91,0.78l0,-16.8c0.25,-0.29 0.55,-0.54 0.91,-0.78m-0.91,0.78l0,16.8c-0.59,0.71 -0.86,1.61 -0.93,2.81l0,-16.8c0.07,-1.21 0.34,-2.1 0.93,-2.81m-0.94,2.81l0,16.8c-0.01,0.23 -0.02,0.48 -0.02,0.73l0,-16.8c0,-0.25 0.01,-0.5 0.02,-0.73" fill="#7f7f7f" id="svg_11" transform="matrix(1 0 0 1 0 0)"/>
  <path d="m614.85,539.92c-1.89,0.01 -3.76,0.07 -5.62,0.19c-0.25,-5.58 -0.61,-11.15 -0.9,-16.73a89.9,89.9 0 0 1 6.52,-0.26l0.35,0l0,16.8l-0.35,0z" fill="#DA4D5E" id="svg_12"/>
  <path d="m615.2,523.12l0,16.8l-0.35,0c-3.78,0.01 -7.5,0.25 -11.11,0.75l0,-16.8c3.62,-0.5 7.33,-0.74 11.11,-0.75l0.35,0" fill="#DA4D5E" id="svg_13"/>
  <path d="m609.23,540.11c-10.48,0.7 -20.29,3.32 -29.01,8.6c-0.14,-5.8 -0.21,-10.79 -0.21,-16.67c8.52,-5.22 18.1,-7.87 28.32,-8.66c0.29,5.58 0.65,11.15 0.9,16.73z" fill="#DA4D5E" id="svg_14"/>
  <path d="m615.2,523.12l0,16.8l-0.35,0c-3.78,0.01 -7.5,0.25 -11.11,0.75l0,-16.8c3.62,-0.5 7.33,-0.74 11.11,-0.75l0.35,0m-11.46,0.75l0,16.8c-4.77,0.65 -9.37,1.74 -13.77,3.36l0,-16.8c4.4,-1.62 9.01,-2.71 13.77,-3.36" fill="#DA4D5E" id="svg_15"/>
  <path d="m589.97,527.23l0,16.8a55.9,55.9 0 0 0 -10.85,5.36l0,-16.8a55.95,55.95 0 0 1 10.85,-5.36" fill="#DA4D5E" id="svg_16"/>
  <path d="m428.35,470.58l0,16.8c0,25.78 -0.09,51.56 -0.09,77.33l0,-16.8c0,-25.78 0.09,-51.55 0.09,-77.33z" fill="#DA4D5E" id="svg_17"/>
  <path d="m428.35,470.58l0,16.8c0,25.78 -0.09,51.56 -0.09,77.33l0,-16.8c0,-25.78 0.09,-51.55 0.09,-77.33" fill="#DA4D5E" id="svg_18"/>
  <path d="m616.64,539.93a76.74,76.74 0 0 0 -1.44,-0.01l0,-16.8c0.48,0 0.96,0 1.44,0.01c13.03,0.2 25.33,3.11 35.82,10.31c8.45,5.81 12.45,12.48 12.5,19.05l0,16.8c-0.05,-6.57 -4.05,-13.25 -12.5,-19.05c-10.49,-7.2 -22.79,-10.11 -35.82,-10.31z" fill="#DA4D5E" id="svg_19"/>
  <path d="m664.96,552.48l0,16.8c-0.05,-6.56 -4.05,-13.24 -12.5,-19.04c-10.49,-7.2 -22.79,-10.11 -35.82,-10.31a76.74,76.74 0 0 0 -1.44,-0.01l0,-16.8c0.48,0 0.96,0 1.44,0.01c13.03,0.2 25.33,3.11 35.82,10.31c8.45,5.8 12.45,12.48 12.5,19.04" fill="#DA4D5E" id="svg_20"/>
  <path d="m664.96,552.48l0,16.8c0.06,7.93 -5.62,15.71 -16.17,21.63c-9.2,5.18 -19.46,7.62 -30.46,8.02l0,-16.8c11,-0.4 21.26,-2.84 30.46,-8.02c10.55,-5.92 16.23,-13.7 16.17,-21.63z" fill="#DA4D5E" id="svg_21"/>
  <path d="m664.96,552.48l0,16.8a17.3,17.3 0 0 1 -0.03,1.12l0,-16.8a17.3,17.3 0 0 0 0.03,-1.12m-0.03,1.12l0,16.8c-0.25,4.08 -2.01,8.1 -5.16,11.82l0,-16.8c3.15,-3.72 4.92,-7.74 5.16,-11.82" fill="#DA4D5E" id="svg_22"/>
  <path d="m659.77,565.42l0,16.8c-2.17,2.56 -5.01,4.98 -8.45,7.18l0,-16.8c3.45,-2.2 6.28,-4.62 8.45,-7.18m-8.46,7.18l0,16.81a53.57,53.57 0 0 1 -2.52,1.5a58.65,58.65 0 0 1 -8.53,3.93l0,-16.8a58.24,58.24 0 0 0 8.53,-3.93a53.41,53.41 0 0 0 2.52,-1.51" fill="#DA4D5E" id="svg_23"/>
  <path d="m640.26,578.04l0,16.8c-4.45,1.64 -9.1,2.76 -13.93,3.41l0,-16.8c4.83,-0.65 9.48,-1.77 13.93,-3.41m-13.93,3.41l0,16.8a80.75,80.75 0 0 1 -8,0.68l0,-16.8a80.45,80.45 0 0 0 8,-0.68" fill="#DA4D5E" id="svg_24"/>
  <path d="m615.2,523.12c0.48,0 0.96,0 1.44,0.01c13.03,0.2 25.33,3.11 35.82,10.31c8.45,5.81 12.45,12.48 12.5,19.05c0.06,7.92 -5.63,15.7 -16.17,21.62c-9.2,5.18 -19.46,7.62 -30.46,8.02l-0.44,0c-0.41,0 -0.82,0 -1.23,0c-17.06,-0.15 -32.88,-3.39 -44.65,-15.3c-4.51,-4.57 -6.69,-9.59 -6.65,-14.54c0.04,-5.98 3.31,-11.87 9.62,-16.77c11.4,-8.87 25.08,-12.34 39.87,-12.4l0.35,0z" fill="#bfbfbf" id="svg_25" transform="matrix(1 0 0 1 0 0)"/>
  <path d="m617.89,582.13l0,16.8c-0.41,0 -0.82,0 -1.23,0c-17.06,-0.15 -32.88,-3.39 -44.64,-15.3l0,-16.8c11.76,11.91 27.58,15.15 44.64,15.3c0.41,0 0.82,0 1.23,0z" fill="#DA4D5E" id="svg_26"/>
  <path d="m617.89,582.13l0,16.8c-0.41,0 -0.82,0 -1.23,0c-17.06,-0.15 -32.88,-3.39 -44.64,-15.3l0,-16.8c11.76,11.91 27.58,15.15 44.64,15.3c0.41,0 0.82,0 1.23,0" fill="#DA4D5E" id="svg_27"/>
  <path d="m539.45,569.73l0,-16.8c0,16.39 9.25,29.07 24.74,38.21c15.94,9.41 32.67,13.97 49.82,13.97c12.35,0 24.91,-2.37 37.56,-6.98c26.01,-9.49 39.68,-26.29 39.51,-51.92l0,16.8c0.17,25.63 -13.5,42.43 -39.51,51.92c-12.65,4.61 -25.21,6.98 -37.56,6.98c-17.15,0 -33.88,-4.56 -49.82,-13.97c-15.49,-9.14 -24.74,-21.82 -24.74,-38.21z" fill="#DA4D5E" id="svg_28"/>
  <path d="m691.08,546.21l0,16.8c0.01,1.54 -0.03,3.04 -0.12,4.51l0,-16.8c0.09,-1.47 0.13,-2.97 0.12,-4.51m-0.12,4.51l0,16.81c-0.7,11.58 -4.45,21.21 -11.1,29.07l0,-16.8c6.65,-7.86 10.4,-17.5 11.1,-29.08m-11.1,29.08l0,16.8c-3.36,3.98 -7.48,7.51 -12.31,10.59l0,-16.8c4.83,-3.09 8.95,-6.61 12.31,-10.59" fill="#7f7f7f" id="svg_29" transform="matrix(1 0 0 1 0 0)"/>
  <path d="m667.55,590.39l0,16.8c-4.6,2.95 -9.87,5.49 -15.77,7.66l0,-16.8c5.9,-2.17 11.17,-4.71 15.77,-7.66" fill="#7f7f7f" id="svg_30" transform="matrix(1 0 0 1 0 0)"/>
  <path d="m651.78,598.05l0,16.8l-0.21,0.08c-8.04,2.93 -16.05,4.96 -23.98,6.04l0,-16.8c7.94,-1.08 15.94,-3.11 23.98,-6.04l0.21,-0.08m-24.19,6.12l0,16.8c-4.55,0.62 -9.08,0.94 -13.58,0.94c-17.15,0 -33.88,-4.56 -49.81,-13.97c-15.5,-9.14 -24.75,-21.82 -24.75,-38.2l0,-16.81c0,16.39 9.25,29.07 24.75,38.21c15.93,9.41 32.66,13.97 49.81,13.97c4.5,0 9.03,-0.32 13.58,-0.94" fill="#7f7f7f" id="svg_31" transform="matrix(1 0 0 1 0 0)"/>
  <path d="m313.48,624.17c0.01,-8.4 0.01,-8.4 0,-16.8a66.06,66.06 0 0 1 1.55,-1.08c7.76,-5.27 16.14,-8.39 24.99,-9.78c-1.82,11.28 -1.83,11.39 -2.25,17.19c-8.02,1.54 -15.64,4.57 -22.75,9.39c-0.51,0.35 -1.03,0.71 -1.54,1.08z" fill="#DA4D5E" id="svg_32"/>
  <path d="m341.37,596.3l0,16.81c-4.56,0.62 -9,1.69 -13.31,3.28l0,-16.8c4.31,-1.59 8.75,-2.66 13.31,-3.29" fill="#DA4D5E" id="svg_33"/>
  <path d="m328.06,599.59l0,16.8a59.65,59.65 0 0 0 -11.61,5.76l0,-16.8a59.79,59.79 0 0 1 11.61,-5.76m-11.61,5.76l0,16.8c-0.48,0.31 -0.95,0.62 -1.42,0.94c-0.61,0.41 -1.22,0.84 -1.82,1.28c-2.04,1.49 -3.77,3.09 -5.19,4.77l0,-16.8c1.42,-1.69 3.15,-3.29 5.19,-4.78a72.85,72.85 0 0 1 1.82,-1.27c0.47,-0.32 0.94,-0.64 1.42,-0.94" fill="#DA4D5E" id="svg_34"/>
  <path d="m313.21,624.36c-6.8,4.98 -10.19,11.21 -10.23,17.45l0,-16.8c0.04,-6.25 3.42,-12.47 10.23,-17.45c0.09,-0.06 0.18,-0.13 0.27,-0.19c0.01,8.4 0.01,8.4 0,16.8c-0.09,0.06 -0.18,0.13 -0.27,0.19z" fill="#DA4D5E" id="svg_35"/>
  <path d="m316.45,605.35l0,16.8c-0.48,0.31 -0.95,0.62 -1.42,0.94c-0.61,0.41 -1.22,0.84 -1.82,1.28c-2.04,1.49 -3.77,3.09 -5.19,4.77l0,-16.8c1.42,-1.69 3.15,-3.29 5.19,-4.78a72.85,72.85 0 0 1 1.82,-1.27c0.47,-0.32 0.94,-0.64 1.42,-0.94m-8.43,6.99l0,16.8c-3.1,3.65 -4.77,7.67 -5.01,11.73l0,-16.8c0.24,-4.06 1.91,-8.08 5.01,-11.73m-5.01,11.73l0,16.8c-0.02,0.31 -0.03,0.63 -0.03,0.94l0,-16.8c0,-0.31 0.01,-0.63 0.03,-0.94" fill="#DA4D5E" id="svg_36"/>
  <path d="m366.61,613.72a106.34,106.34 0 0 0 -4.31,-0.61c0,-5.6 0.01,-11.2 -0.02,-16.8c1.44,0.17 2.88,0.38 4.32,0.61c11.23,1.83 21.33,5.89 28.89,13.6c4.69,4.79 6.97,9.97 6.95,15.06l0,16.8c0.02,-5.09 -2.27,-10.27 -6.95,-15.06c-7.55,-7.72 -17.66,-11.77 -28.88,-13.6z" fill="#DA4D5E" id="svg_37"/>
  <path d="m402.44,625.57l0,16.8c0.02,-5.08 -2.26,-10.26 -6.94,-15.05c-7.56,-7.72 -17.66,-11.77 -28.89,-13.6c-5.09,-0.83 -10.1,-1.27 -14.99,-1.29c-0.37,0 -0.58,0 -0.8,0.01a73.79,73.79 0 0 0 -9.44,0.66l0,-16.8a73.98,73.98 0 0 1 9.44,-0.66c0.22,-0.01 0.43,-0.01 0.8,-0.01c4.9,0.02 9.9,0.46 14.99,1.29c11.23,1.82 21.33,5.88 28.89,13.6c4.68,4.79 6.96,9.97 6.94,15.05" fill="#DA4D5E" id="svg_38"/>
  <path d="m352.72,654.81l0,16.8c-14.43,-0.42 -27.85,-3.43 -39.24,-11.77c-7.01,-5.13 -10.54,-11.59 -10.5,-18.03l0,-16.8c-0.04,6.44 3.49,12.9 10.5,18.03c11.39,8.34 24.81,11.35 39.24,11.77z" fill="#DA4D5E" id="svg_39"/>
  <path d="m352.72,654.81l0,16.8c-14.43,-0.42 -27.85,-3.43 -39.24,-11.77c-7.01,-5.13 -10.54,-11.59 -10.5,-18.03l0,-16.8c-0.04,6.44 3.49,12.9 10.5,18.03c11.39,8.34 24.81,11.35 39.24,11.77" fill="#DA4D5E" id="svg_40"/>
  <path d="m402.44,625.57l0,16.8c-0.03,6.14 -3.42,12.14 -10.02,17.14c-11.37,8.6 -24.95,11.65 -39.7,12.1l0,-16.8c14.75,-0.45 28.33,-3.49 39.7,-12.1c6.6,-5 9.99,-11 10.02,-17.14z" fill="#DA4D5E" id="svg_41"/>
  <path d="m402.44,625.57l0,16.8c0,0.31 -0.01,0.62 -0.03,0.93l0,-16.8c0.02,-0.31 0.03,-0.62 0.03,-0.93m-0.03,0.93l0,16.8c-0.24,4 -1.91,7.92 -4.97,11.52l0,-16.8c3.06,-3.6 4.73,-7.52 4.97,-11.52m-4.97,11.52l0,16.8c-1.39,1.64 -3.06,3.21 -5.02,4.69a53.16,53.16 0 0 1 -3.44,2.4l0,-16.8a52.26,52.26 0 0 0 3.44,-2.4c1.96,-1.48 3.63,-3.06 5.02,-4.69" fill="#DA4D5E" id="svg_42"/>
  <path d="m388.98,645.1l0,16.8c-3.39,2.17 -6.97,3.91 -10.68,5.27l0,-16.8c3.72,-1.37 7.29,-3.1 10.68,-5.27" fill="#DA4D5E" id="svg_43"/>
  <path d="m378.3,650.37l0,16.8c-4.7,1.73 -9.64,2.87 -14.76,3.57l0,-16.8c5.12,-0.7 10.06,-1.84 14.76,-3.57m-14.77,3.57l0,16.8c-3.52,0.48 -7.13,0.76 -10.82,0.87l0,-16.8c3.69,-0.12 7.3,-0.39 10.82,-0.87" fill="#DA4D5E" id="svg_44"/>
  <path d="m351.46,595.64c5.05,0.01 10.06,0.45 15.15,1.28c11.22,1.83 21.33,5.88 28.89,13.6c4.68,4.79 6.96,9.97 6.94,15.05c-0.03,6.14 -3.42,12.14 -10.02,17.14c-11.37,8.61 -24.95,11.65 -39.71,12.1c-14.42,-0.42 -27.85,-3.43 -39.24,-11.77c-7,-5.13 -10.53,-11.59 -10.49,-18.03c0.04,-6.24 3.43,-12.46 10.23,-17.45a72.8,72.8 0 0 1 1.82,-1.27c10.86,-7.37 22.94,-10.54 35.79,-10.65c0.21,0 0.43,0 0.64,0z" fill="#bfbfbf" id="svg_45" transform="matrix(1 0 0 1 0 0)"/>
  <path d="m690.97,294.77c-0.16,83.82 -0.46,167.63 0.11,251.44c0.17,25.63 -13.51,42.43 -39.51,51.92c-12.65,4.61 -25.22,6.98 -37.57,6.98c-17.14,0 -33.87,-4.56 -49.81,-13.97c-16.38,-9.66 -25.78,-23.28 -24.65,-41.05c0.99,-15.61 10.09,-27.68 24.73,-35.97c16.5,-9.34 33.3,-13.88 50.29,-13.88c15.56,0 31.28,3.81 47.08,11.24c0.78,0.37 1.56,0.76 2.34,1.11c0.66,-43.09 0.66,-86.08 0.66,-129.53c-1.79,0.45 -3.45,0.84 -5.08,1.3c-75.57,20.81 -151.14,41.64 -226.75,62.36c-3.52,0.96 -4.48,2.26 -4.48,5.37c0.13,55.61 -0.41,111.23 0.32,166.84c0.33,25.35 -13.3,41.93 -38.83,51.48c-12.8,4.79 -25.52,7.22 -38.04,7.22c-17.09,0 -33.79,-4.53 -49.79,-13.81c-22.02,-12.77 -30.5,-34.66 -21.57,-54.2c7.11,-15.54 20.97,-25.31 38.53,-31c11.63,-3.77 23.14,-5.69 34.49,-5.69c15.82,0 31.33,3.73 46.42,11.39c0.51,0.26 1.04,0.49 1.58,0.71c1.02,-1.51 1.02,-2.98 1.02,-4.46c0,-71.14 -0.01,-142.27 0,-213.41c0,-9.76 2.54,-12.73 13.33,-15.7c85.67,-23.56 171.34,-47.12 257,-70.7c0.68,-0.19 1.31,-0.53 1.97,-0.8l6.27,0c7.55,2.81 9.95,7.85 9.94,14.81zm-29.4,65.51c2.61,-0.72 3.37,-1.75 3.37,-3.98a3922.02,3922.02 0 0 1 -0.06,-26.29c0,-4.85 0,-9.7 0,-14.55c0,-1.94 0,-3.88 0,-5.82c0,-0.86 -0.14,-1.74 -0.23,-2.77c-1.1,0.19 -1.98,0.26 -2.82,0.48c-76.72,21.11 -153.42,42.24 -230.15,63.28c-2.65,0.73 -3.3,1.82 -3.3,4c0.05,8.84 0.05,17.57 0.05,26.3l0,11.64c0,2.91 0,5.82 0.01,8.73c0,0.86 0.12,1.74 0.19,2.83c1.23,-0.26 2.25,-0.42 3.21,-0.69c76.57,-21.06 153.13,-42.15 229.73,-63.16m-269.15,282.43c6.6,-5 9.99,-11 10.02,-17.14c0.02,-5.08 -2.26,-10.26 -6.94,-15.05c-7.57,-7.72 -17.67,-11.77 -28.89,-13.6c-5.1,-0.83 -10.1,-1.27 -14.99,-1.29c-0.37,0 -0.58,0 -0.8,0.01c-12.85,0.1 -24.93,3.27 -35.79,10.64a71.7,71.7 0 0 0 -1.82,1.28c-6.8,4.98 -10.19,11.2 -10.23,17.44c-0.04,6.44 3.49,12.9 10.5,18.04c11.39,8.33 24.81,11.34 39.24,11.76c14.75,-0.44 28.33,-3.48 39.7,-12.09m256.38,-68.6c10.54,-5.92 16.22,-13.7 16.16,-21.63c-0.05,-6.56 -4.05,-13.24 -12.5,-19.04c-10.49,-7.2 -22.79,-10.11 -35.82,-10.31a86.33,86.33 0 0 0 -1.44,-0.01l-0.35,0c-14.79,0.05 -28.47,3.52 -39.87,12.39c-6.31,4.91 -9.58,10.79 -9.62,16.77c-0.04,4.96 2.14,9.98 6.66,14.55c11.76,11.91 27.58,15.15 44.64,15.3c0.41,0 0.82,0 1.23,0l0.44,0c11,-0.4 21.26,-2.84 30.47,-8.02" fill="#7f7f7f" id="svg_46" transform="matrix(1 0 0 1 0 0)"/>
  <path d="m428.65,619.83l0,16.8c0,24.84 -13.6,41.14 -38.83,50.59c-12.8,4.78 -25.52,7.22 -38.03,7.22c-17.1,0 -33.8,-4.54 -49.8,-13.81c-16.2,-9.4 -25.07,-23.74 -25.07,-38.44l0,-16.8c0,14.7 8.87,29.04 25.07,38.44c16,9.27 32.7,13.81 49.8,13.81c12.51,0 25.23,-2.44 38.03,-7.22c25.23,-9.45 38.83,-25.75 38.83,-50.59z" fill="#DA4D5E" id="svg_47"/>
  <path d="m428.65,619.83l0,16.8c0,1.33 -0.03,2.63 -0.11,3.91l0,-16.8c0.08,-1.28 0.11,-2.58 0.11,-3.91m-0.11,3.91l0,16.8c-0.69,11.34 -4.41,20.78 -10.94,28.5l0,-16.79c6.53,-7.73 10.25,-17.17 10.94,-28.51m-10.94,28.51l0,16.8c-3.38,3.98 -7.5,7.51 -12.35,10.61l0,-16.8c4.85,-3.1 8.98,-6.63 12.35,-10.61m-12.35,10.61l0,16.8c-4.52,2.89 -9.67,5.4 -15.43,7.56l-0.7,0.25l0,-16.8l0.7,-0.25c5.76,-2.16 10.91,-4.67 15.43,-7.56" fill="#7f7f7f" id="svg_48" transform="matrix(1 0 0 1 0 0)"/>
  <path d="m389.13,670.67l0,16.8c-8,2.94 -15.96,4.96 -23.86,6.04l0,-16.8c7.9,-1.08 15.86,-3.1 23.86,-6.04m-23.86,6.04l0,16.8c-4.52,0.62 -9.02,0.93 -13.49,0.93c-17.09,0 -33.79,-4.54 -49.79,-13.81c-16.2,-9.4 -25.08,-23.73 -25.08,-38.44l0,-16.8c0,14.7 8.88,29.04 25.08,38.44c16,9.27 32.7,13.81 49.79,13.81a99.77,99.77 0 0 0 13.49,-0.93" fill="#7f7f7f" id="svg_49" transform="matrix(1 0 0 1 0 0)"/>
 </g>
</svg>