<?xml version="1.0" encoding="UTF-8"?>
<svg version="1.1" xmlns="http://www.w3.org/2000/svg" width="128" height="128">
<path d="M0,0 L14,0 L14,1 L19,1 L19,2 L23,2 L23,3 L27,3 L27,4 L30,4 L30,5 L32,5 L32,6 L34,6 L34,7 L36,7 L36,8 L38,8 L38,9 L40,9 L40,10 L41,10 L41,11 L43,11 L43,12 L44,12 L44,13 L46,13 L46,14 L47,14 L47,15 L48,15 L48,16 L49,16 L49,17 L50,17 L50,18 L51,18 L51,19 L52,19 L52,20 L53,20 L53,21 L54,21 L54,22 L55,22 L55,23 L56,23 L56,24 L57,24 L57,26 L58,26 L58,27 L59,27 L59,29 L60,29 L60,30 L61,30 L61,32 L62,32 L62,34 L63,34 L63,36 L64,36 L64,38 L65,38 L65,40 L66,40 L66,43 L67,43 L67,46 L68,46 L68,50 L69,50 L69,54 L70,54 L70,72 L69,72 L69,76 L68,76 L68,80 L67,80 L67,83 L66,83 L66,86 L65,86 L65,88 L64,88 L64,91 L63,91 L63,93 L62,93 L62,94 L61,94 L61,96 L60,96 L60,98 L59,98 L59,99 L58,99 L58,101 L57,101 L57,102 L56,102 L56,103 L55,103 L55,104 L54,104 L54,105 L53,105 L53,106 L52,106 L52,107 L51,107 L51,108 L50,108 L50,109 L49,109 L49,110 L48,110 L48,111 L47,111 L47,112 L46,112 L46,113 L45,113 L45,114 L43,114 L43,115 L42,115 L42,116 L40,116 L40,117 L38,117 L38,118 L37,118 L37,119 L35,119 L35,120 L33,120 L33,121 L30,121 L30,122 L27,122 L27,123 L24,123 L24,124 L20,124 L20,125 L16,125 L16,126 L-2,126 L-2,125 L-6,125 L-6,124 L-10,124 L-10,123 L-13,123 L-13,122 L-16,122 L-16,121 L-18,121 L-18,120 L-20,120 L-20,119 L-22,119 L-22,118 L-24,118 L-24,117 L-26,117 L-26,116 L-27,116 L-27,115 L-29,115 L-29,114 L-30,114 L-30,113 L-32,113 L-32,112 L-33,112 L-33,111 L-34,111 L-34,110 L-35,110 L-35,109 L-36,109 L-36,108 L-37,108 L-37,107 L-38,107 L-38,106 L-39,106 L-39,105 L-40,105 L-40,104 L-41,104 L-41,103 L-42,103 L-42,102 L-43,102 L-43,100 L-44,100 L-44,99 L-45,99 L-45,97 L-46,97 L-46,96 L-47,96 L-47,94 L-48,94 L-48,92 L-49,92 L-49,90 L-50,90 L-50,88 L-51,88 L-51,86 L-52,86 L-52,83 L-53,83 L-53,80 L-54,80 L-54,76 L-55,76 L-55,71 L-56,71 L-56,55 L-55,55 L-55,52 L-54,52 L-54,47 L-53,47 L-53,44 L-52,44 L-52,41 L-51,41 L-51,38 L-50,38 L-50,36 L-49,36 L-49,34 L-48,34 L-48,32 L-47,32 L-47,31 L-46,31 L-46,29 L-45,29 L-45,28 L-44,28 L-44,26 L-43,26 L-43,25 L-42,25 L-42,24 L-41,24 L-41,22 L-40,22 L-40,21 L-39,21 L-39,20 L-38,20 L-38,19 L-37,19 L-37,18 L-36,18 L-36,17 L-35,17 L-35,16 L-34,16 L-34,15 L-33,15 L-33,14 L-31,14 L-31,13 L-30,13 L-30,12 L-29,12 L-29,11 L-27,11 L-27,10 L-25,10 L-25,9 L-24,9 L-24,8 L-22,8 L-22,7 L-20,7 L-20,6 L-18,6 L-18,5 L-15,5 L-15,4 L-12,4 L-12,3 L-9,3 L-9,2 L-5,2 L-5,1 L0,1 Z " fill="#BA9E33" transform="translate(57,1)"/>
<path d="M0,0 L1,0 L1,1 L0,1 Z M-1,1 L0,1 L0,3 L-2,3 L-2,2 L-1,2 Z M0,-36 L1,-36 L1,-35 L2,-35 L2,-26 L1,-26 L1,-22 L0,-22 L0,-21 L-1,-21 L-1,-19 L0,-19 L0,-20 L1,-20 L1,-21 L2,-21 L2,-22 L8,-22 L8,-21 L9,-21 L9,-16 L8,-16 L8,-14 L7,-14 L7,-12 L5,-12 L5,-10 L4,-10 L4,-9 L3,-9 L3,-8 L2,-8 L2,-7 L-1,-7 L-1,-8 L1,-8 L1,-12 L-1,-12 L-1,-11 L-2,-11 L-2,-9 L-5,-9 L-5,-8 L-6,-8 L-6,-7 L-4,-7 L-4,-5 L-6,-5 L-6,-2 L-7,-2 L-7,0 L-4,0 L-4,-1 L-2,-1 L-2,0 L-3,0 L-3,1 L-6,1 L-6,2 L-7,2 L-7,4 L-3,4 L-3,3 L-2,3 L-2,5 L-3,5 L-3,6 L-11,6 L-11,7 L-12,7 L-12,8 L-13,8 L-13,13 L-14,13 L-14,20 L-13,20 L-13,21 L-12,21 L-12,25 L-11,25 L-11,26 L-9,26 L-9,27 L-8,27 L-8,28 L-7,28 L-7,29 L-2,29 L-2,28 L-1,28 L-1,27 L0,27 L0,28 L3,28 L3,27 L5,27 L5,28 L12,28 L12,26 L13,26 L13,22 L12,22 L12,21 L13,21 L13,20 L12,20 L12,14 L11,14 L11,13 L12,13 L12,10 L14,10 L14,9 L20,9 L20,8 L22,8 L22,7 L23,7 L23,6 L26,6 L26,5 L27,5 L27,3 L28,3 L28,2 L29,2 L29,1 L44,1 L44,2 L45,2 L45,7 L46,7 L46,11 L47,11 L47,17 L46,17 L46,20 L45,20 L45,21 L44,21 L44,24 L43,24 L43,27 L42,27 L42,28 L41,28 L41,30 L40,30 L40,31 L39,31 L39,33 L38,33 L38,34 L37,34 L37,36 L38,36 L38,35 L39,35 L39,34 L41,34 L41,35 L40,35 L40,36 L39,36 L39,40 L41,40 L41,43 L40,43 L40,44 L39,44 L39,45 L38,45 L38,46 L40,46 L40,45 L43,45 L43,44 L47,44 L47,43 L48,43 L48,42 L53,42 L53,41 L54,41 L54,40 L55,40 L55,39 L59,39 L59,46 L58,46 L58,53 L57,53 L57,54 L56,54 L56,55 L55,55 L55,56 L54,56 L54,57 L53,57 L53,58 L52,58 L52,60 L51,60 L51,61 L50,61 L50,62 L48,62 L48,63 L47,63 L47,65 L46,65 L46,66 L45,66 L45,67 L47,67 L47,66 L49,66 L49,67 L48,67 L48,68 L46,68 L46,69 L44,69 L44,70 L41,70 L41,71 L39,71 L39,72 L35,72 L35,73 L28,73 L28,74 L9,74 L9,73 L6,73 L6,72 L4,72 L4,71 L5,71 L5,69 L6,69 L6,67 L0,67 L0,66 L-1,66 L-1,65 L-2,65 L-2,64 L-1,64 L-1,62 L0,62 L0,60 L1,60 L1,59 L4,59 L4,58 L6,58 L6,56 L7,56 L7,54 L9,54 L9,52 L10,52 L10,51 L11,51 L11,49 L13,49 L13,48 L16,48 L16,47 L20,47 L20,46 L21,46 L21,45 L22,45 L22,44 L24,44 L24,43 L26,43 L26,42 L27,42 L27,41 L29,41 L29,40 L30,40 L30,39 L31,39 L31,37 L32,37 L32,36 L30,36 L30,37 L29,37 L29,38 L28,38 L28,39 L25,39 L25,40 L23,40 L23,41 L21,41 L21,42 L19,42 L19,43 L11,43 L11,44 L7,44 L7,45 L-3,45 L-3,44 L-5,44 L-5,43 L-7,43 L-7,42 L-8,42 L-8,40 L-9,40 L-9,39 L-10,39 L-10,38 L-12,38 L-12,37 L-14,37 L-14,36 L-15,36 L-15,35 L-16,35 L-16,37 L-15,37 L-15,40 L-14,40 L-14,42 L-13,42 L-13,43 L-12,43 L-12,44 L-11,44 L-11,45 L-9,45 L-9,46 L-7,46 L-7,47 L-6,47 L-6,48 L-5,48 L-5,49 L-4,49 L-4,58 L-3,58 L-3,61 L-4,61 L-4,63 L-5,63 L-5,64 L-8,64 L-8,66 L-11,66 L-11,65 L-13,65 L-13,64 L-14,64 L-14,63 L-15,63 L-15,62 L-17,62 L-17,61 L-18,61 L-18,60 L-19,60 L-19,59 L-20,59 L-20,58 L-21,58 L-21,57 L-22,57 L-22,54 L-21,54 L-21,52 L-20,52 L-20,43 L-19,43 L-19,40 L-20,40 L-20,38 L-19,38 L-19,37 L-18,37 L-18,31 L-19,31 L-19,29 L-20,29 L-20,26 L-21,26 L-21,23 L-22,23 L-22,8 L-21,8 L-21,5 L-20,5 L-20,4 L-19,4 L-19,2 L-18,2 L-18,-2 L-17,-2 L-17,-6 L-16,-6 L-16,-8 L-15,-8 L-15,-10 L-14,-10 L-14,-11 L-13,-11 L-13,-13 L-12,-13 L-12,-14 L-11,-14 L-11,-15 L-9,-15 L-9,-16 L-6,-16 L-6,-17 L-4,-17 L-4,-18 L-3,-18 L-3,-20 L-2,-20 L-2,-22 L-1,-22 L-1,-23 L0,-23 Z " fill="#D8C173" transform="translate(44,49)"/>
<path d="M0,0 L1,0 L1,8 L2,8 L2,9 L3,9 L3,10 L15,10 L15,11 L29,11 L29,13 L28,13 L28,14 L27,14 L27,16 L28,16 L28,17 L29,17 L29,18 L31,18 L31,22 L33,22 L33,23 L34,23 L34,24 L35,24 L35,25 L36,25 L36,24 L38,24 L38,26 L40,26 L40,27 L41,27 L41,28 L42,28 L42,30 L43,30 L43,31 L44,31 L44,32 L45,32 L45,33 L46,33 L46,34 L47,34 L47,26 L43,26 L43,25 L44,25 L44,23 L47,23 L47,22 L48,22 L48,24 L49,24 L49,26 L50,26 L50,30 L51,30 L51,37 L52,37 L52,42 L53,42 L53,45 L54,45 L54,47 L55,47 L55,49 L56,49 L56,54 L57,54 L57,57 L58,57 L58,62 L59,62 L59,66 L60,66 L60,71 L58,71 L58,76 L57,76 L57,73 L53,73 L53,74 L52,74 L52,75 L51,75 L51,76 L46,76 L46,77 L45,77 L45,78 L41,78 L41,79 L38,79 L38,80 L36,80 L36,79 L37,79 L37,78 L38,78 L38,77 L39,77 L39,74 L37,74 L37,70 L38,70 L38,69 L39,69 L39,68 L37,68 L37,69 L36,69 L36,70 L35,70 L35,68 L36,68 L36,67 L37,67 L37,65 L38,65 L38,64 L39,64 L39,62 L40,62 L40,61 L41,61 L41,58 L42,58 L42,55 L43,55 L43,54 L44,54 L44,51 L45,51 L45,45 L44,45 L44,41 L43,41 L43,36 L42,36 L42,35 L27,35 L27,36 L26,36 L26,37 L25,37 L25,39 L24,39 L24,40 L21,40 L21,41 L20,41 L20,42 L18,42 L18,43 L12,43 L12,44 L10,44 L10,47 L9,47 L9,48 L10,48 L10,54 L11,54 L11,55 L10,55 L10,56 L11,56 L11,60 L10,60 L10,62 L3,62 L3,61 L1,61 L1,62 L-2,62 L-2,61 L-3,61 L-3,62 L-4,62 L-4,63 L-9,63 L-9,62 L-10,62 L-10,61 L-11,61 L-11,60 L-13,60 L-13,59 L-14,59 L-14,55 L-15,55 L-15,54 L-16,54 L-16,47 L-15,47 L-15,42 L-14,42 L-14,41 L-13,41 L-13,40 L-5,40 L-5,39 L-4,39 L-4,37 L-5,37 L-5,38 L-9,38 L-9,36 L-8,36 L-8,35 L-5,35 L-5,34 L-4,34 L-4,33 L-6,33 L-6,34 L-9,34 L-9,32 L-8,32 L-8,29 L-6,29 L-6,27 L-8,27 L-8,26 L-7,26 L-7,25 L-4,25 L-4,23 L-3,23 L-3,22 L-1,22 L-1,26 L-3,26 L-3,27 L0,27 L0,26 L1,26 L1,25 L2,25 L2,24 L3,24 L3,22 L5,22 L5,20 L6,20 L6,18 L7,18 L7,13 L6,13 L6,12 L0,12 L0,13 L-1,13 L-1,14 L-2,14 L-2,15 L-3,15 L-3,13 L-2,13 L-2,12 L-1,12 L-1,8 L0,8 Z M-2,34 L-2,35 L-1,35 L-1,34 Z M-3,35 L-3,36 L-4,36 L-4,37 L-2,37 L-2,35 Z " fill="#CEAC4E" transform="translate(46,15)"/>
<path d="M0,0 L1,0 L1,1 L3,1 L3,2 L4,2 L4,3 L8,3 L8,4 L9,4 L9,5 L10,5 L10,6 L11,6 L11,7 L12,7 L12,8 L13,8 L13,9 L14,9 L14,10 L15,10 L15,11 L16,11 L16,12 L17,12 L17,8 L18,8 L18,9 L19,9 L19,10 L20,10 L20,12 L21,12 L21,13 L22,13 L22,15 L23,15 L23,16 L24,16 L24,18 L25,18 L25,20 L26,20 L26,22 L27,22 L27,24 L28,24 L28,26 L29,26 L29,29 L30,29 L30,32 L31,32 L31,44 L32,44 L32,56 L31,56 L31,58 L30,58 L30,61 L29,61 L29,58 L28,58 L28,64 L27,64 L27,68 L26,68 L26,70 L25,70 L25,73 L24,73 L24,75 L23,75 L23,77 L22,77 L22,79 L21,79 L21,81 L20,81 L20,82 L19,82 L19,84 L18,84 L18,85 L17,85 L17,86 L16,86 L16,88 L15,88 L15,89 L13,89 L13,76 L12,76 L12,72 L11,72 L11,74 L10,74 L10,71 L12,71 L12,66 L11,66 L11,62 L10,62 L10,57 L9,57 L9,54 L8,54 L8,49 L7,49 L7,47 L6,47 L6,45 L5,45 L5,42 L4,42 L4,37 L3,37 L3,30 L2,30 L2,26 L1,26 L1,24 L0,24 L0,22 L-1,22 L-1,21 L0,21 L0,18 L1,18 L1,7 L0,7 L0,2 L-1,2 L-1,1 L0,1 Z " fill="#BA9E33" transform="translate(94,15)"/>
<path d="M0,0 L14,0 L14,1 L19,1 L19,2 L23,2 L23,3 L27,3 L27,4 L30,4 L30,5 L32,5 L32,6 L34,6 L34,7 L36,7 L36,8 L38,8 L38,9 L40,9 L40,10 L41,10 L41,11 L43,11 L43,12 L44,12 L44,13 L46,13 L46,14 L47,14 L47,15 L48,15 L48,16 L49,16 L49,17 L50,17 L50,18 L51,18 L51,19 L52,19 L52,20 L53,20 L53,21 L54,21 L54,26 L53,26 L53,25 L52,25 L52,24 L51,24 L51,23 L50,23 L50,22 L49,22 L49,21 L48,21 L48,20 L47,20 L47,19 L46,19 L46,18 L45,18 L45,17 L41,17 L41,16 L40,16 L40,15 L38,15 L38,14 L37,14 L37,15 L36,15 L36,16 L37,16 L37,21 L38,21 L38,32 L37,32 L37,35 L36,35 L36,37 L33,37 L33,39 L32,39 L32,40 L36,40 L36,48 L35,48 L35,47 L34,47 L34,46 L33,46 L33,45 L32,45 L32,44 L31,44 L31,42 L30,42 L30,41 L29,41 L29,40 L27,40 L27,38 L25,38 L25,39 L24,39 L24,38 L23,38 L23,37 L22,37 L22,36 L20,36 L20,32 L18,32 L18,31 L17,31 L17,30 L16,30 L16,28 L17,28 L17,27 L18,27 L18,25 L4,25 L4,24 L-8,24 L-8,23 L-9,23 L-9,22 L-10,22 L-10,14 L-11,14 L-11,13 L-12,13 L-12,12 L-13,12 L-13,25 L-14,25 L-14,26 L-15,26 L-15,10 L-14,10 L-14,9 L-18,9 L-18,10 L-20,10 L-20,11 L-21,11 L-21,12 L-23,12 L-23,13 L-25,13 L-25,14 L-27,14 L-27,13 L-28,13 L-28,12 L-27,12 L-27,10 L-25,10 L-25,9 L-24,9 L-24,8 L-22,8 L-22,7 L-20,7 L-20,6 L-18,6 L-18,5 L-15,5 L-15,4 L-12,4 L-12,3 L-9,3 L-9,2 L-5,2 L-5,1 L0,1 Z " fill="#BA9E34" transform="translate(57,1)"/>
<path d="M0,0 L1,0 L1,1 L2,1 L2,10 L1,10 L1,14 L0,14 L0,15 L-1,15 L-1,17 L0,17 L0,16 L1,16 L1,15 L2,15 L2,14 L8,14 L8,15 L9,15 L9,20 L8,20 L8,22 L7,22 L7,24 L5,24 L5,26 L4,26 L4,27 L3,27 L3,28 L2,28 L2,29 L-1,29 L-1,28 L1,28 L1,24 L-1,24 L-1,25 L-2,25 L-2,27 L-5,27 L-5,28 L-6,28 L-6,29 L-4,29 L-4,31 L-6,31 L-6,34 L-7,34 L-7,36 L-4,36 L-4,35 L-2,35 L-2,36 L-3,36 L-3,37 L-6,37 L-6,38 L-7,38 L-7,40 L-3,40 L-3,39 L-2,39 L-2,41 L-3,41 L-3,42 L-11,42 L-11,43 L-12,43 L-12,44 L-13,44 L-13,49 L-14,49 L-14,56 L-13,56 L-13,57 L-12,57 L-12,61 L-11,61 L-11,62 L-10,62 L-10,66 L-9,66 L-9,67 L-8,67 L-8,68 L-7,68 L-7,69 L-6,69 L-6,70 L-4,70 L-4,72 L-3,72 L-3,73 L-2,73 L-2,74 L0,74 L0,73 L2,73 L2,72 L4,72 L4,71 L6,71 L6,72 L7,72 L7,73 L8,73 L8,75 L9,75 L9,74 L14,74 L14,73 L16,73 L16,70 L17,70 L17,69 L25,69 L25,68 L24,68 L24,65 L22,65 L22,63 L23,63 L23,62 L24,62 L24,60 L26,60 L26,59 L30,59 L30,58 L31,58 L31,57 L32,57 L32,56 L33,56 L33,55 L37,55 L37,58 L38,58 L38,60 L37,60 L37,61 L32,61 L32,67 L31,67 L31,70 L29,70 L29,71 L28,71 L28,72 L27,72 L27,73 L26,73 L26,75 L25,75 L25,76 L23,76 L23,77 L21,77 L21,78 L19,78 L19,79 L11,79 L11,80 L7,80 L7,81 L-3,81 L-3,80 L-5,80 L-5,79 L-7,79 L-7,78 L-8,78 L-8,76 L-9,76 L-9,75 L-10,75 L-10,74 L-12,74 L-12,73 L-14,73 L-14,72 L-15,72 L-15,71 L-16,71 L-16,73 L-15,73 L-15,76 L-14,76 L-14,78 L-13,78 L-13,79 L-12,79 L-12,80 L-11,80 L-11,81 L-9,81 L-9,82 L-7,82 L-7,83 L-6,83 L-6,84 L-5,84 L-5,85 L-4,85 L-4,94 L-3,94 L-3,97 L-4,97 L-4,99 L-5,99 L-5,100 L-8,100 L-8,102 L-11,102 L-11,101 L-13,101 L-13,100 L-14,100 L-14,99 L-15,99 L-15,98 L-17,98 L-17,97 L-18,97 L-18,96 L-19,96 L-19,95 L-20,95 L-20,94 L-21,94 L-21,93 L-22,93 L-22,90 L-21,90 L-21,88 L-20,88 L-20,79 L-19,79 L-19,76 L-20,76 L-20,74 L-19,74 L-19,73 L-18,73 L-18,67 L-19,67 L-19,65 L-20,65 L-20,62 L-21,62 L-21,59 L-22,59 L-22,44 L-21,44 L-21,41 L-20,41 L-20,40 L-19,40 L-19,38 L-18,38 L-18,34 L-17,34 L-17,30 L-16,30 L-16,28 L-15,28 L-15,26 L-14,26 L-14,25 L-13,25 L-13,23 L-12,23 L-12,22 L-11,22 L-11,21 L-9,21 L-9,20 L-6,20 L-6,19 L-4,19 L-4,18 L-3,18 L-3,16 L-2,16 L-2,14 L-1,14 L-1,13 L0,13 Z M0,36 L1,36 L1,37 L0,37 Z M-1,37 L0,37 L0,39 L-2,39 L-2,38 L-1,38 Z " fill="#EDD78E" transform="translate(44,13)"/>
<path d="M0,0 L15,0 L15,1 L16,1 L16,6 L17,6 L17,10 L18,10 L18,16 L17,16 L17,19 L16,19 L16,20 L15,20 L15,23 L14,23 L14,26 L13,26 L13,27 L12,27 L12,29 L11,29 L11,30 L10,30 L10,32 L9,32 L9,33 L8,33 L8,35 L9,35 L9,34 L10,34 L10,33 L12,33 L12,34 L11,34 L11,35 L10,35 L10,39 L12,39 L12,42 L11,42 L11,43 L10,43 L10,44 L8,44 L8,45 L5,45 L5,44 L4,44 L4,43 L2,43 L2,44 L1,44 L1,42 L-2,42 L-2,43 L-4,43 L-4,42 L-3,42 L-3,41 L-2,41 L-2,40 L0,40 L0,39 L1,39 L1,38 L2,38 L2,36 L3,36 L3,35 L1,35 L1,36 L0,36 L0,37 L-1,37 L-1,38 L-3,38 L-3,36 L-2,36 L-2,35 L-1,35 L-1,34 L0,34 L0,33 L2,33 L2,30 L3,30 L3,24 L8,24 L8,23 L9,23 L9,21 L8,21 L8,18 L4,18 L4,19 L3,19 L3,20 L2,20 L2,21 L1,21 L1,22 L-3,22 L-3,23 L-5,23 L-5,25 L-6,25 L-6,26 L-7,26 L-7,28 L-5,28 L-5,31 L-4,31 L-4,32 L-12,32 L-12,33 L-13,33 L-13,36 L-15,36 L-15,37 L-20,37 L-20,38 L-21,38 L-21,36 L-22,36 L-22,35 L-23,35 L-23,34 L-25,34 L-25,35 L-27,35 L-27,36 L-29,36 L-29,37 L-31,37 L-31,36 L-32,36 L-32,35 L-33,35 L-33,33 L-35,33 L-35,32 L-36,32 L-36,31 L-37,31 L-37,30 L-38,30 L-38,29 L-39,29 L-39,25 L-38,25 L-38,26 L-37,26 L-37,27 L-36,27 L-36,28 L-31,28 L-31,27 L-30,27 L-30,26 L-29,26 L-29,27 L-26,27 L-26,26 L-24,26 L-24,27 L-17,27 L-17,25 L-16,25 L-16,21 L-17,21 L-17,20 L-16,20 L-16,19 L-17,19 L-17,13 L-18,13 L-18,12 L-17,12 L-17,9 L-15,9 L-15,8 L-9,8 L-9,7 L-7,7 L-7,6 L-6,6 L-6,5 L-3,5 L-3,4 L-2,4 L-2,2 L-1,2 L-1,1 L0,1 Z " fill="#E4CD82" transform="translate(73,50)"/>
<path d="M0,0 L2,0 L2,1 L7,1 L7,2 L9,2 L9,3 L10,3 L10,5 L9,5 L9,6 L8,6 L8,5 L7,5 L7,6 L6,6 L6,7 L4,7 L4,9 L5,9 L5,10 L4,10 L4,11 L2,11 L2,12 L1,12 L1,13 L-1,13 L-1,12 L-3,12 L-3,13 L-4,13 L-4,14 L-5,14 L-5,15 L-4,15 L-4,20 L-3,20 L-3,21 L-2,21 L-2,28 L-3,28 L-3,29 L-2,29 L-2,35 L-1,35 L-1,36 L-2,36 L-2,37 L-1,37 L-1,41 L-2,41 L-2,43 L-9,43 L-9,42 L-11,42 L-11,43 L-14,43 L-14,42 L-15,42 L-15,43 L-16,43 L-16,44 L-21,44 L-21,43 L-22,43 L-22,42 L-23,42 L-23,41 L-25,41 L-25,40 L-26,40 L-26,36 L-27,36 L-27,35 L-28,35 L-28,28 L-27,28 L-27,23 L-26,23 L-26,22 L-25,22 L-25,21 L-17,21 L-17,20 L-16,20 L-16,18 L-17,18 L-17,19 L-21,19 L-21,17 L-20,17 L-20,16 L-17,16 L-17,15 L-16,15 L-16,14 L-17,14 L-17,13 L-16,13 L-16,11 L-15,11 L-15,10 L-14,10 L-14,12 L-13,12 L-13,11 L-12,11 L-12,9 L-9,9 L-9,13 L-8,13 L-8,12 L-7,12 L-7,11 L-6,11 L-6,10 L-5,10 L-5,9 L-4,9 L-4,8 L-3,8 L-3,5 L-2,5 L-2,4 L-1,4 L-1,2 L0,2 Z M-14,15 L-14,16 L-13,16 L-13,15 Z M-15,16 L-15,17 L-16,17 L-16,18 L-14,18 L-14,16 Z " fill="#D8C174" transform="translate(58,34)"/>
<path d="M0,0 L6,0 L6,2 L7,2 L7,4 L6,4 L6,5 L7,5 L7,6 L6,6 L6,8 L5,8 L5,10 L4,10 L4,12 L3,12 L3,13 L4,13 L4,15 L3,15 L3,16 L1,16 L1,17 L0,17 L0,19 L-1,19 L-1,20 L-2,20 L-2,21 L0,21 L0,20 L2,20 L2,21 L1,21 L1,22 L-1,22 L-1,23 L-3,23 L-3,24 L-6,24 L-6,25 L-8,25 L-8,26 L-12,26 L-12,27 L-19,27 L-19,28 L-38,28 L-38,27 L-41,27 L-41,26 L-43,26 L-43,25 L-42,25 L-42,23 L-39,23 L-39,24 L-37,24 L-37,23 L-36,23 L-36,22 L-34,22 L-34,23 L-33,23 L-33,22 L-32,22 L-32,20 L-30,20 L-30,19 L-29,19 L-29,18 L-28,18 L-28,17 L-27,17 L-27,16 L-25,16 L-25,15 L-22,15 L-22,14 L-21,14 L-21,13 L-17,13 L-17,12 L-16,12 L-16,11 L-12,11 L-12,10 L-11,10 L-11,9 L-10,9 L-10,8 L-8,8 L-8,7 L-7,7 L-7,5 L-6,5 L-6,4 L-5,4 L-5,3 L-3,3 L-3,2 L-2,2 L-2,1 L0,1 Z " fill="#E2CC80" transform="translate(91,95)"/>
<path d="M0,0 L1,0 L1,4 L2,4 L2,22 L1,22 L1,26 L0,26 L0,30 L-1,30 L-1,33 L-2,33 L-2,36 L-3,36 L-3,38 L-4,38 L-4,41 L-5,41 L-5,43 L-6,43 L-6,44 L-7,44 L-7,46 L-8,46 L-8,48 L-9,48 L-9,49 L-10,49 L-10,51 L-11,51 L-11,52 L-12,52 L-12,53 L-13,53 L-13,54 L-14,54 L-14,55 L-15,55 L-15,56 L-16,56 L-16,57 L-17,57 L-17,58 L-18,58 L-18,59 L-19,59 L-19,60 L-20,60 L-20,61 L-21,61 L-21,62 L-22,62 L-22,63 L-23,63 L-23,64 L-25,64 L-25,65 L-26,65 L-26,66 L-28,66 L-28,67 L-30,67 L-30,68 L-31,68 L-31,69 L-33,69 L-33,70 L-35,70 L-35,71 L-38,71 L-38,72 L-41,72 L-41,73 L-44,73 L-44,74 L-48,74 L-48,75 L-52,75 L-52,76 L-70,76 L-70,75 L-74,75 L-74,73 L-77,73 L-77,71 L-72,71 L-72,72 L-53,72 L-53,71 L-46,71 L-46,70 L-42,70 L-42,69 L-40,69 L-40,68 L-37,68 L-37,67 L-35,67 L-35,66 L-33,66 L-33,65 L-32,65 L-32,64 L-34,64 L-34,65 L-36,65 L-36,64 L-35,64 L-35,63 L-34,63 L-34,61 L-33,61 L-33,60 L-31,60 L-31,59 L-30,59 L-30,58 L-29,58 L-29,56 L-28,56 L-28,55 L-27,55 L-27,54 L-26,54 L-26,53 L-25,53 L-25,52 L-24,52 L-24,51 L-23,51 L-23,44 L-22,44 L-22,40 L-21,40 L-21,38 L-20,38 L-20,36 L-19,36 L-19,40 L-18,40 L-18,53 L-16,53 L-16,52 L-15,52 L-15,50 L-14,50 L-14,49 L-13,49 L-13,48 L-12,48 L-12,46 L-11,46 L-11,45 L-10,45 L-10,43 L-9,43 L-9,41 L-8,41 L-8,39 L-7,39 L-7,37 L-6,37 L-6,34 L-5,34 L-5,32 L-4,32 L-4,28 L-3,28 L-3,22 L-2,22 L-2,25 L-1,25 L-1,22 L0,22 L0,20 L1,20 L1,8 L0,8 Z " fill="#B7933C" transform="translate(125,51)"/>
<path d="M0,0 L1,0 L1,1 L2,1 L2,2 L4,2 L4,3 L6,3 L6,4 L7,4 L7,5 L8,5 L8,7 L9,7 L9,8 L11,8 L11,9 L13,9 L13,10 L23,10 L23,9 L27,9 L27,8 L35,8 L35,7 L37,7 L37,6 L39,6 L39,5 L41,5 L41,4 L44,4 L44,3 L45,3 L45,2 L46,2 L46,1 L48,1 L48,2 L47,2 L47,4 L46,4 L46,5 L45,5 L45,6 L43,6 L43,7 L42,7 L42,8 L40,8 L40,9 L38,9 L38,10 L37,10 L37,11 L36,11 L36,12 L32,12 L32,13 L29,13 L29,14 L27,14 L27,16 L26,16 L26,17 L25,17 L25,19 L23,19 L23,21 L22,21 L22,23 L20,23 L20,24 L17,24 L17,25 L16,25 L16,27 L15,27 L15,29 L14,29 L14,30 L15,30 L15,31 L16,31 L16,32 L22,32 L22,34 L21,34 L21,36 L20,36 L20,37 L22,37 L22,38 L20,38 L20,40 L23,40 L23,41 L19,41 L19,40 L16,40 L16,39 L13,39 L13,38 L17,38 L17,37 L18,37 L18,36 L15,36 L15,35 L12,35 L12,34 L10,34 L10,33 L8,33 L8,32 L6,32 L6,31 L8,31 L8,29 L11,29 L11,28 L12,28 L12,26 L13,26 L13,23 L12,23 L12,14 L11,14 L11,13 L10,13 L10,12 L9,12 L9,11 L7,11 L7,10 L5,10 L5,9 L4,9 L4,8 L3,8 L3,7 L2,7 L2,5 L1,5 L1,2 L0,2 Z " fill="#C6A54C" transform="translate(28,84)"/>
<path d="M0,0 L1,0 L1,2 L2,2 L2,5 L3,5 L3,8 L4,8 L4,10 L5,10 L5,11 L6,11 L6,12 L7,12 L7,13 L9,13 L9,14 L11,14 L11,15 L12,15 L12,16 L13,16 L13,17 L14,17 L14,26 L15,26 L15,29 L14,29 L14,31 L13,31 L13,32 L10,32 L10,34 L7,34 L7,33 L5,33 L5,32 L4,32 L4,31 L3,31 L3,30 L1,30 L1,29 L0,29 L0,28 L-1,28 L-1,27 L-2,27 L-2,26 L-3,26 L-3,25 L-4,25 L-4,22 L-3,22 L-3,20 L-2,20 L-2,11 L-1,11 L-1,8 L-2,8 L-2,6 L-1,6 L-1,5 L0,5 Z " fill="#E2CB7D" transform="translate(26,81)"/>
<path d="M0,0 L1,0 L1,1 L2,1 L2,10 L1,10 L1,14 L0,14 L0,15 L-1,15 L-1,17 L0,17 L0,16 L1,16 L1,15 L2,15 L2,14 L8,14 L8,15 L9,15 L9,20 L8,20 L8,22 L7,22 L7,24 L5,24 L5,26 L4,26 L4,27 L3,27 L3,28 L2,28 L2,29 L-1,29 L-1,28 L1,28 L1,24 L-1,24 L-1,25 L-2,25 L-2,27 L-5,27 L-5,28 L-6,28 L-6,29 L-4,29 L-4,31 L-6,31 L-6,34 L-7,34 L-7,36 L-4,36 L-4,35 L-2,35 L-2,36 L-3,36 L-3,37 L-6,37 L-6,38 L-7,38 L-7,40 L-3,40 L-3,39 L-2,39 L-2,41 L-3,41 L-3,42 L-10,42 L-10,40 L-12,40 L-12,33 L-11,33 L-11,32 L-10,32 L-10,30 L-13,30 L-13,31 L-14,31 L-14,33 L-16,33 L-16,36 L-18,36 L-18,34 L-17,34 L-17,30 L-16,30 L-16,28 L-15,28 L-15,26 L-14,26 L-14,25 L-13,25 L-13,23 L-12,23 L-12,22 L-11,22 L-11,21 L-9,21 L-9,20 L-6,20 L-6,19 L-4,19 L-4,18 L-3,18 L-3,16 L-2,16 L-2,14 L-1,14 L-1,13 L0,13 Z M0,36 L1,36 L1,37 L0,37 Z M-1,37 L0,37 L0,39 L-2,39 L-2,38 L-1,38 Z " fill="#D7BF70" transform="translate(44,13)"/>
<path d="M0,0 L2,0 L2,7 L1,7 L1,10 L0,10 L0,13 L-1,13 L-1,15 L0,15 L0,14 L1,14 L1,13 L2,13 L2,11 L3,11 L3,9 L4,9 L4,8 L5,8 L5,6 L6,6 L6,4 L7,4 L7,10 L6,10 L6,12 L8,12 L8,17 L10,17 L10,19 L11,19 L11,21 L10,21 L10,22 L9,22 L9,23 L8,23 L8,24 L7,24 L7,25 L6,25 L6,26 L5,26 L5,24 L3,24 L3,25 L2,25 L2,26 L1,26 L1,28 L0,28 L0,29 L-1,29 L-1,30 L-2,30 L-2,31 L-3,31 L-3,32 L-5,32 L-5,33 L-8,33 L-8,34 L-10,34 L-10,33 L-9,33 L-9,32 L-8,32 L-8,31 L-7,31 L-7,28 L-9,28 L-9,24 L-8,24 L-8,23 L-7,23 L-7,22 L-9,22 L-9,23 L-10,23 L-10,24 L-11,24 L-11,22 L-10,22 L-10,21 L-9,21 L-9,19 L-8,19 L-8,18 L-7,18 L-7,16 L-6,16 L-6,15 L-5,15 L-5,12 L-4,12 L-4,9 L-3,9 L-3,8 L-2,8 L-2,5 L-1,5 L-1,2 L0,2 Z " fill="#BC9B3A" transform="translate(92,61)"/>
<path d="M0,0 L1,0 L1,8 L2,8 L2,9 L3,9 L3,10 L15,10 L15,11 L29,11 L29,13 L28,13 L28,14 L27,14 L27,16 L28,16 L28,17 L29,17 L29,18 L31,18 L31,22 L30,22 L30,21 L29,21 L29,20 L28,20 L28,19 L27,19 L27,20 L24,20 L24,21 L23,21 L23,14 L17,14 L17,15 L16,15 L16,16 L15,16 L15,17 L14,17 L14,18 L13,18 L13,19 L12,19 L12,21 L11,21 L11,23 L10,23 L10,24 L9,24 L9,27 L8,27 L8,28 L7,28 L7,29 L6,29 L6,30 L5,30 L5,31 L4,31 L4,32 L3,32 L3,28 L0,28 L0,30 L-1,30 L-1,31 L-2,31 L-2,29 L-3,29 L-3,30 L-4,30 L-4,32 L-5,32 L-5,33 L-6,33 L-6,34 L-9,34 L-9,32 L-8,32 L-8,29 L-6,29 L-6,27 L-8,27 L-8,26 L-7,26 L-7,25 L-4,25 L-4,23 L-3,23 L-3,22 L-1,22 L-1,26 L-3,26 L-3,27 L0,27 L0,26 L1,26 L1,25 L2,25 L2,24 L3,24 L3,22 L5,22 L5,20 L6,20 L6,18 L7,18 L7,13 L6,13 L6,12 L0,12 L0,13 L-1,13 L-1,14 L-2,14 L-2,15 L-3,15 L-3,13 L-2,13 L-2,12 L-1,12 L-1,8 L0,8 Z " fill="#C8A545" transform="translate(46,15)"/>
<path d="M0,0 L6,0 L6,1 L9,1 L9,2 L10,2 L10,3 L11,3 L11,9 L9,9 L9,11 L8,11 L8,14 L9,14 L9,16 L10,16 L10,17 L12,17 L12,18 L17,18 L17,17 L24,17 L24,20 L23,20 L23,22 L16,22 L16,21 L14,21 L14,22 L11,22 L11,21 L10,21 L10,22 L9,22 L9,23 L4,23 L4,22 L3,22 L3,21 L2,21 L2,20 L0,20 L0,19 L-1,19 L-1,15 L-2,15 L-2,14 L-3,14 L-3,7 L-2,7 L-2,2 L-1,2 L-1,1 L0,1 Z " fill="#342C16" transform="translate(33,55)"/>
<path d="M0,0 L3,0 L3,2 L2,2 L2,3 L1,3 L1,10 L3,10 L3,12 L2,12 L2,13 L1,13 L1,14 L0,14 L0,19 L-1,19 L-1,26 L0,26 L0,27 L1,27 L1,32 L0,32 L0,34 L-1,34 L-1,35 L-2,35 L-2,39 L-1,39 L-1,41 L1,41 L1,42 L-2,42 L-2,41 L-3,41 L-3,40 L-4,40 L-4,38 L-5,38 L-5,37 L-6,37 L-6,35 L-7,35 L-7,32 L-8,32 L-8,29 L-9,29 L-9,14 L-8,14 L-8,11 L-7,11 L-7,10 L-6,10 L-6,8 L-5,8 L-5,6 L-3,6 L-3,3 L-1,3 L-1,1 L0,1 Z " fill="#ECDC9A" transform="translate(31,43)"/>
<path d="M0,0 L3,0 L3,3 L2,3 L2,4 L1,4 L1,5 L0,5 L0,7 L-1,7 L-1,8 L-2,8 L-2,10 L-3,10 L-3,12 L-4,12 L-4,13 L-5,13 L-5,15 L-6,15 L-6,18 L-7,18 L-7,20 L-8,20 L-8,23 L-9,23 L-9,28 L-10,28 L-10,32 L-11,32 L-11,48 L-10,48 L-10,52 L-9,52 L-9,58 L-10,58 L-10,56 L-12,56 L-12,50 L-13,50 L-13,44 L-14,44 L-14,33 L-13,33 L-13,24 L-12,24 L-12,21 L-11,21 L-11,18 L-10,18 L-10,15 L-9,15 L-9,13 L-8,13 L-8,11 L-7,11 L-7,9 L-6,9 L-6,8 L-5,8 L-5,6 L-4,6 L-4,5 L-3,5 L-3,3 L-2,3 L-2,2 L-1,2 L-1,1 L0,1 Z " fill="#7E6B2A" transform="translate(16,24)"/>
<path d="M0,0 L2,0 L2,1 L7,1 L7,2 L9,2 L9,3 L10,3 L10,5 L9,5 L9,6 L8,6 L8,5 L7,5 L7,6 L6,6 L6,7 L4,7 L4,9 L5,9 L5,10 L4,10 L4,11 L2,11 L2,12 L1,12 L1,13 L-1,13 L-1,12 L-3,12 L-3,13 L-4,13 L-4,14 L-5,14 L-5,15 L-4,15 L-4,20 L-5,20 L-5,21 L-7,21 L-7,17 L-8,17 L-8,15 L-9,15 L-9,14 L-10,14 L-10,13 L-11,13 L-11,14 L-13,14 L-13,15 L-14,15 L-14,16 L-15,16 L-15,17 L-16,17 L-16,18 L-17,18 L-17,19 L-21,19 L-21,17 L-20,17 L-20,16 L-17,16 L-17,15 L-16,15 L-16,14 L-17,14 L-17,13 L-16,13 L-16,11 L-15,11 L-15,10 L-14,10 L-14,12 L-13,12 L-13,11 L-12,11 L-12,9 L-9,9 L-9,13 L-8,13 L-8,12 L-7,12 L-7,11 L-6,11 L-6,10 L-5,10 L-5,9 L-4,9 L-4,8 L-3,8 L-3,5 L-2,5 L-2,4 L-1,4 L-1,2 L0,2 Z " fill="#D8BA64" transform="translate(58,34)"/>
<path d="M0,0 L2,0 L2,1 L3,1 L3,10 L2,10 L2,11 L1,11 L1,13 L2,13 L2,15 L3,15 L3,16 L1,16 L1,18 L0,18 L0,19 L4,19 L4,27 L3,27 L3,26 L2,26 L2,25 L1,25 L1,24 L0,24 L0,23 L-1,23 L-1,21 L-2,21 L-2,20 L-3,20 L-3,19 L-5,19 L-5,17 L-6,17 L-6,16 L-8,16 L-8,14 L-6,14 L-6,12 L-5,12 L-5,11 L-4,11 L-4,10 L-3,10 L-3,9 L-4,9 L-4,8 L-5,8 L-5,9 L-7,9 L-7,10 L-8,10 L-8,8 L-7,8 L-7,5 L-6,5 L-6,4 L-5,4 L-5,3 L-4,3 L-4,2 L-2,2 L-2,1 L0,1 Z " fill="#AB8C3A" transform="translate(89,22)"/>
<path d="M0,0 L2,0 L2,1 L1,1 L1,2 L-1,2 L-1,4 L-2,4 L-2,6 L-4,6 L-4,7 L-7,7 L-7,8 L-10,8 L-10,9 L-13,9 L-13,10 L-17,10 L-17,11 L-21,11 L-21,12 L-39,12 L-39,11 L-43,11 L-43,9 L-46,9 L-46,7 L-41,7 L-41,8 L-22,8 L-22,7 L-15,7 L-15,6 L-11,6 L-11,5 L-9,5 L-9,4 L-6,4 L-6,3 L-4,3 L-4,2 L-2,2 L-2,1 L0,1 Z " fill="#9B8848" transform="translate(94,115)"/>
<path d="M0,0 L2,0 L2,1 L3,1 L3,2 L4,2 L4,3 L5,3 L5,2 L7,2 L7,4 L9,4 L9,5 L10,5 L10,6 L11,6 L11,8 L12,8 L12,9 L13,9 L13,10 L14,10 L14,11 L15,11 L15,12 L16,12 L16,4 L12,4 L12,3 L13,3 L13,1 L16,1 L16,0 L17,0 L17,2 L18,2 L18,4 L19,4 L19,8 L20,8 L20,12 L19,12 L19,16 L18,16 L18,15 L17,15 L17,14 L16,14 L16,21 L17,21 L17,24 L15,24 L15,26 L14,26 L14,23 L13,23 L13,19 L12,19 L12,14 L11,14 L11,12 L10,12 L10,9 L9,9 L9,7 L8,7 L8,6 L7,6 L7,5 L5,5 L5,4 L2,4 L2,3 L1,3 L1,1 L0,1 Z " fill="#C3A33E" transform="translate(77,37)"/>
<path d="M0,0 L5,0 L5,1 L7,1 L7,2 L8,2 L8,3 L9,3 L9,4 L8,4 L8,6 L7,6 L7,7 L6,7 L6,8 L3,8 L3,9 L0,9 L0,10 L4,10 L4,13 L-2,13 L-2,14 L-4,14 L-4,10 L-5,10 L-5,9 L-6,9 L-6,4 L-7,4 L-7,3 L-6,3 L-6,2 L-5,2 L-5,1 L-3,1 L-3,2 L-1,2 L-1,1 L0,1 Z " fill="#C7B169" transform="translate(60,45)"/>
<path d="M0,0 L7,0 L7,1 L8,1 L8,2 L14,2 L14,3 L-3,3 L-3,4 L-7,4 L-7,5 L-12,5 L-12,6 L-15,6 L-15,7 L-17,7 L-17,8 L-20,8 L-20,9 L-22,9 L-22,10 L-23,10 L-23,11 L-25,11 L-25,12 L-27,12 L-27,13 L-29,13 L-29,12 L-30,12 L-30,11 L-29,11 L-29,9 L-27,9 L-27,8 L-26,8 L-26,7 L-24,7 L-24,6 L-22,6 L-22,5 L-20,5 L-20,4 L-17,4 L-17,3 L-14,3 L-14,2 L-11,2 L-11,1 L0,1 Z " fill="#927E3D" transform="translate(59,2)"/>
<path d="M0,0 L1,0 L1,1 L2,1 L2,4 L3,4 L3,6 L4,6 L4,8 L5,8 L5,10 L6,10 L6,12 L7,12 L7,13 L8,13 L8,15 L9,15 L9,16 L10,16 L10,17 L11,17 L11,19 L12,19 L12,20 L13,20 L13,21 L14,21 L14,22 L15,22 L15,23 L16,23 L16,24 L17,24 L17,25 L18,25 L18,26 L19,26 L19,27 L20,27 L20,28 L22,28 L22,29 L23,29 L23,30 L24,30 L24,31 L26,31 L26,32 L27,32 L27,33 L29,33 L29,34 L31,34 L31,35 L33,35 L33,36 L36,36 L36,37 L39,37 L39,38 L38,38 L38,39 L32,39 L32,38 L30,38 L30,37 L28,37 L28,36 L26,36 L26,35 L24,35 L24,34 L23,34 L23,33 L21,33 L21,32 L20,32 L20,31 L18,31 L18,30 L17,30 L17,29 L16,29 L16,27 L17,27 L17,26 L16,26 L16,25 L15,25 L15,24 L14,24 L14,23 L13,23 L13,22 L12,22 L12,21 L11,21 L11,20 L9,20 L9,19 L8,19 L8,18 L9,18 L9,17 L8,17 L8,16 L7,16 L7,14 L6,14 L6,13 L4,13 L4,12 L5,12 L5,11 L4,11 L4,10 L3,10 L3,7 L2,7 L2,5 L1,5 L1,3 L0,3 Z " fill="#8E7A37" transform="translate(7,83)"/>
<path d="M0,0 L3,0 L3,2 L2,2 L2,3 L1,3 L1,10 L3,10 L3,12 L-2,12 L-2,13 L-1,13 L-1,14 L-2,14 L-2,25 L-3,25 L-3,20 L-4,20 L-4,16 L-5,16 L-5,20 L-6,20 L-6,21 L-8,21 L-8,20 L-7,20 L-7,19 L-8,19 L-8,11 L-7,11 L-7,10 L-6,10 L-6,8 L-5,8 L-5,6 L-3,6 L-3,3 L-1,3 L-1,1 L0,1 Z " fill="#F5EBB6" transform="translate(31,43)"/>
<path d="M0,0 L1,0 L1,4 L2,4 L2,22 L1,22 L1,26 L0,26 L0,30 L-1,30 L-1,33 L-2,33 L-2,36 L-3,36 L-3,38 L-4,38 L-4,41 L-5,41 L-5,43 L-6,43 L-6,44 L-7,44 L-7,46 L-8,46 L-8,48 L-9,48 L-9,49 L-11,49 L-11,47 L-10,47 L-10,43 L-9,43 L-9,41 L-8,41 L-8,39 L-7,39 L-7,37 L-6,37 L-6,34 L-5,34 L-5,32 L-4,32 L-4,28 L-3,28 L-3,22 L-2,22 L-2,25 L-1,25 L-1,22 L0,22 L0,20 L1,20 L1,8 L0,8 Z " fill="#A69459" transform="translate(125,51)"/>
<path d="M0,0 L1,0 L1,4 L0,4 L0,15 L1,15 L1,21 L2,21 L2,27 L4,27 L4,29 L5,29 L5,28 L6,28 L6,30 L5,30 L5,33 L6,33 L6,35 L7,35 L7,37 L8,37 L8,40 L9,40 L9,41 L10,41 L10,42 L9,42 L9,43 L11,43 L11,44 L12,44 L12,46 L13,46 L13,47 L14,47 L14,48 L13,48 L13,49 L14,49 L14,50 L16,50 L16,51 L17,51 L17,52 L18,52 L18,53 L19,53 L19,54 L20,54 L20,55 L21,55 L21,56 L22,56 L22,57 L21,57 L21,58 L20,58 L20,57 L19,57 L19,56 L18,56 L18,55 L17,55 L17,54 L16,54 L16,53 L15,53 L15,52 L14,52 L14,51 L13,51 L13,50 L12,50 L12,48 L11,48 L11,47 L10,47 L10,45 L9,45 L9,44 L8,44 L8,42 L7,42 L7,40 L6,40 L6,38 L5,38 L5,36 L4,36 L4,34 L3,34 L3,31 L2,31 L2,28 L1,28 L1,24 L0,24 L0,19 L-1,19 L-1,3 L0,3 Z " fill="#BAA972" transform="translate(2,53)"/>
<path d="M0,0 L1,0 L1,1 L2,1 L2,2 L3,2 L3,3 L8,3 L8,2 L9,2 L9,1 L10,1 L10,2 L13,2 L13,1 L15,1 L15,2 L21,2 L21,3 L15,3 L15,6 L14,6 L14,10 L12,10 L12,11 L10,11 L10,12 L8,12 L8,11 L7,11 L7,10 L6,10 L6,8 L4,8 L4,7 L3,7 L3,6 L2,6 L2,5 L1,5 L1,4 L0,4 Z " fill="#DEC676" transform="translate(34,75)"/>
<path d="M0,0 L1,0 L1,1 L2,1 L2,10 L1,10 L1,14 L0,14 L0,15 L-1,15 L-1,17 L0,17 L0,16 L1,16 L1,15 L2,15 L2,14 L8,14 L8,15 L9,15 L9,20 L8,20 L8,22 L7,22 L7,24 L5,24 L5,18 L2,18 L2,19 L1,19 L1,20 L0,20 L0,21 L-1,21 L-1,22 L-2,22 L-2,23 L-3,23 L-3,24 L-5,24 L-5,23 L-4,23 L-4,22 L-3,22 L-3,16 L-2,16 L-2,14 L-1,14 L-1,13 L0,13 Z " fill="#D7B961" transform="translate(44,13)"/>
<path d="M0,0 L7,0 L7,1 L10,1 L10,2 L12,2 L12,3 L15,3 L15,4 L19,4 L19,3 L22,3 L22,2 L24,2 L24,1 L25,1 L25,4 L24,4 L24,6 L17,6 L17,5 L15,5 L15,6 L12,6 L12,5 L11,5 L11,6 L10,6 L10,7 L5,7 L5,6 L4,6 L4,5 L3,5 L3,4 L1,4 L1,3 L0,3 Z " fill="#917B30" transform="translate(32,71)"/>
<path d="M0,0 L4,0 L4,1 L5,1 L5,2 L6,2 L6,3 L7,3 L7,8 L8,8 L8,19 L7,19 L7,22 L6,22 L6,24 L5,24 L5,23 L4,23 L4,21 L3,21 L3,19 L4,19 L4,18 L5,18 L5,9 L4,9 L4,8 L3,8 L3,7 L2,7 L2,5 L1,5 L1,4 L0,4 L0,3 L-1,3 L-1,1 L0,1 Z " fill="#9C8232" transform="translate(87,14)"/>
<path d="M0,0 L1,0 L1,1 L2,1 L2,2 L4,2 L4,3 L6,3 L6,4 L7,4 L7,5 L8,5 L8,6 L6,6 L6,7 L7,7 L7,8 L8,8 L8,9 L10,9 L10,10 L12,10 L12,11 L13,11 L13,12 L17,12 L17,14 L18,14 L18,15 L19,15 L19,17 L20,17 L20,18 L19,18 L19,19 L17,19 L17,18 L16,18 L16,17 L14,17 L14,15 L13,15 L13,16 L12,16 L12,14 L11,14 L11,13 L10,13 L10,12 L9,12 L9,11 L7,11 L7,10 L5,10 L5,9 L4,9 L4,8 L3,8 L3,7 L2,7 L2,5 L1,5 L1,2 L0,2 Z " fill="#D2B256" transform="translate(28,84)"/>
<path d="M0,0 L1,0 L1,3 L2,3 L2,1 L3,1 L3,2 L5,2 L5,4 L2,4 L2,5 L7,5 L7,4 L8,4 L8,3 L9,3 L9,2 L11,2 L11,0 L13,0 L13,4 L14,4 L14,5 L15,5 L15,6 L14,6 L14,7 L15,7 L15,8 L8,8 L8,9 L3,9 L3,8 L1,8 L1,7 L0,7 L0,5 L-1,5 L-1,2 L0,2 Z " fill="#D5BE71" transform="translate(42,64)"/>
<path d="M0,0 L1,0 L1,2 L3,2 L3,5 L4,5 L4,8 L5,8 L5,11 L6,11 L6,19 L7,19 L7,31 L6,31 L6,33 L5,33 L5,36 L4,36 L4,12 L3,12 L3,9 L2,9 L2,5 L1,5 L1,3 L0,3 Z " fill="#85702B" transform="translate(119,40)"/>
<path d="M0,0 L1,0 L1,1 L2,1 L2,2 L3,2 L3,4 L4,4 L4,5 L8,5 L8,6 L9,6 L9,7 L12,7 L12,9 L13,9 L13,10 L15,10 L15,11 L20,11 L20,10 L26,10 L26,11 L24,11 L24,12 L21,12 L21,13 L17,13 L17,12 L14,12 L14,11 L12,11 L12,10 L9,10 L9,9 L2,9 L2,8 L1,8 L1,7 L0,7 Z " fill="#362E15" transform="translate(30,62)"/>
<path d="M0,0 L1,0 L1,1 L3,1 L3,2 L4,2 L4,4 L5,4 L5,5 L6,5 L6,7 L7,7 L7,9 L8,9 L8,11 L9,11 L9,13 L10,13 L10,15 L11,15 L11,18 L12,18 L12,21 L13,21 L13,25 L12,25 L12,22 L11,22 L11,19 L10,19 L10,16 L8,16 L8,14 L6,14 L6,12 L5,12 L5,10 L4,10 L4,11 L3,11 L3,10 L2,10 L2,8 L1,8 L1,6 L0,6 L0,5 L-1,5 L-1,3 L0,3 Z " fill="#9F8C4E" transform="translate(112,26)"/>
<path d="M0,0 L2,0 L2,4 L0,4 L0,5 L3,5 L3,4 L4,4 L4,3 L5,3 L5,2 L6,2 L6,0 L8,0 L8,5 L7,5 L7,8 L6,8 L6,6 L3,6 L3,8 L2,8 L2,9 L1,9 L1,7 L0,7 L0,8 L-1,8 L-1,10 L-2,10 L-2,11 L-3,11 L-3,12 L-6,12 L-6,10 L-5,10 L-5,7 L-3,7 L-3,5 L-5,5 L-5,4 L-4,4 L-4,3 L-1,3 L-1,1 L0,1 Z " fill="#CEAF59" transform="translate(43,37)"/>
<path d="M0,0 L1,0 L1,2 L0,2 L0,7 L-1,7 L-1,8 L-2,8 L-2,16 L-4,16 L-4,13 L-6,13 L-6,12 L-7,12 L-7,11 L-8,11 L-8,9 L-7,9 L-7,8 L-6,8 L-6,6 L-19,6 L-19,5 L-4,5 L-4,4 L-3,4 L-3,3 L-2,3 L-2,2 L-1,2 L-1,1 L0,1 Z " fill="#A78934" transform="translate(81,20)"/>
<path d="M0,0 L14,0 L14,1 L19,1 L19,2 L23,2 L23,3 L27,3 L27,4 L23,4 L23,5 L22,5 L22,4 L17,4 L17,5 L-1,5 L-1,4 L16,4 L16,3 L10,3 L10,2 L9,2 L9,1 L2,1 L2,2 L-5,2 L-5,1 L0,1 Z " fill="#B6A467" transform="translate(57,1)"/>
<path d="M0,0 L2,0 L2,1 L1,1 L1,2 L-1,2 L-1,4 L-2,4 L-2,6 L-4,6 L-4,7 L-7,7 L-7,8 L-10,8 L-10,9 L-13,9 L-13,10 L-16,10 L-16,8 L-22,8 L-22,7 L-15,7 L-15,6 L-11,6 L-11,5 L-9,5 L-9,4 L-6,4 L-6,3 L-4,3 L-4,2 L-2,2 L-2,1 L0,1 Z " fill="#9F8B4C" transform="translate(94,115)"/>
<path d="M0,0 L3,0 L3,3 L2,3 L2,4 L1,4 L1,5 L0,5 L0,7 L-1,7 L-1,8 L-2,8 L-2,10 L-3,10 L-3,12 L-4,12 L-4,13 L-5,13 L-5,15 L-7,15 L-7,14 L-8,14 L-8,15 L-9,15 L-9,13 L-8,13 L-8,11 L-7,11 L-7,9 L-6,9 L-6,8 L-5,8 L-5,6 L-4,6 L-4,5 L-3,5 L-3,3 L-2,3 L-2,2 L-1,2 L-1,1 L0,1 Z " fill="#968342" transform="translate(16,24)"/>
<path d="M0,0 L3,0 L3,1 L8,1 L8,2 L9,2 L9,3 L10,3 L10,4 L11,4 L11,5 L12,5 L12,6 L13,6 L13,7 L14,7 L14,8 L15,8 L15,9 L16,9 L16,14 L15,14 L15,13 L14,13 L14,12 L13,12 L13,11 L12,11 L12,10 L11,10 L11,9 L10,9 L10,8 L9,8 L9,7 L8,7 L8,6 L7,6 L7,5 L5,5 L5,4 L4,4 L4,3 L3,3 L3,2 L1,2 L1,1 L0,1 Z " fill="#7E6B2C" transform="translate(95,13)"/>
<path d="M0,0 L2,0 L2,1 L1,1 L1,3 L0,3 L0,4 L-1,4 L-1,6 L0,6 L0,7 L-1,7 L-1,10 L-2,10 L-2,11 L-3,11 L-3,13 L-4,13 L-4,14 L-5,14 L-5,15 L-6,15 L-6,16 L-7,16 L-7,17 L-9,17 L-9,16 L-8,16 L-8,14 L-7,14 L-7,12 L-6,12 L-6,11 L-8,11 L-8,12 L-9,12 L-9,9 L-8,9 L-8,8 L-6,8 L-6,7 L-5,7 L-5,6 L-4,6 L-4,5 L-3,5 L-3,4 L-2,4 L-2,3 L-1,3 L-1,2 L0,2 Z " fill="#9E8333" transform="translate(96,76)"/>
<path d="M0,0 L3,0 L3,8 L2,8 L2,9 L1,9 L1,10 L0,10 L0,11 L-3,11 L-3,10 L-1,10 L-1,6 L-3,6 L-3,7 L-4,7 L-4,9 L-7,9 L-7,10 L-9,10 L-9,9 L-8,9 L-8,8 L-7,8 L-7,6 L-5,6 L-5,5 L-4,5 L-4,4 L-3,4 L-3,3 L-2,3 L-2,2 L-1,2 L-1,1 L0,1 Z " fill="#E3CC7E" transform="translate(46,31)"/>
<path d="M0,0 L1,0 L1,3 L2,3 L2,4 L0,4 L0,6 L1,6 L1,7 L0,7 L0,11 L-1,11 L-1,16 L-2,16 L-2,35 L-3,35 L-3,29 L-4,29 L-4,18 L-3,18 L-3,9 L-2,9 L-2,6 L-1,6 L-1,3 L0,3 Z " fill="#957B28" transform="translate(6,39)"/>
<path d="M0,0 L1,0 L1,2 L0,2 L0,3 L-1,3 L-1,4 L-2,4 L-2,5 L-3,5 L-3,7 L-4,7 L-4,9 L-5,9 L-5,10 L-6,10 L-6,13 L-7,13 L-7,14 L-8,14 L-8,15 L-9,15 L-9,16 L-10,16 L-10,17 L-11,17 L-11,18 L-12,18 L-12,16 L-11,16 L-11,13 L-10,13 L-10,10 L-9,10 L-9,8 L-8,8 L-8,6 L-7,6 L-7,5 L-6,5 L-6,4 L-5,4 L-5,3 L-3,3 L-3,2 L-2,2 L-2,1 L0,1 Z " fill="#B5913A" transform="translate(61,29)"/>
<path d="M0,0 L5,0 L5,2 L4,2 L4,3 L3,3 L3,5 L2,5 L2,8 L1,8 L1,10 L-1,10 L-1,11 L-2,11 L-2,12 L-3,12 L-3,11 L-5,11 L-5,9 L-3,9 L-3,7 L-2,7 L-2,6 L-1,6 L-1,5 L0,5 L0,4 L-1,4 L-1,3 L-2,3 L-2,4 L-4,4 L-4,5 L-5,5 L-5,3 L-4,3 L-4,1 L0,1 Z " fill="#534721" transform="translate(86,27)"/>
<path d="M0,0 L1,0 L1,2 L0,2 L0,4 L1,4 L1,6 L0,6 L0,7 L-1,7 L-1,8 L-2,8 L-2,9 L-3,9 L-3,10 L-4,10 L-4,11 L-5,11 L-5,12 L-6,12 L-6,13 L-7,13 L-7,14 L-8,14 L-8,15 L-9,15 L-9,16 L-13,16 L-13,17 L-15,17 L-15,16 L-14,16 L-14,15 L-13,15 L-13,14 L-11,14 L-11,13 L-10,13 L-10,12 L-9,12 L-9,11 L-8,11 L-8,10 L-7,10 L-7,9 L-6,9 L-6,8 L-5,8 L-5,7 L-4,7 L-4,5 L-3,5 L-3,4 L-2,4 L-2,3 L-1,3 L-1,1 L0,1 Z " fill="#877330" transform="translate(114,96)"/>
<path d="M0,0 L1,0 L1,1 L2,1 L2,4 L3,4 L3,6 L4,6 L4,8 L5,8 L5,10 L6,10 L6,12 L7,12 L7,13 L8,13 L8,15 L9,15 L9,16 L10,16 L10,17 L11,17 L11,19 L12,19 L12,20 L13,20 L13,21 L14,21 L14,22 L15,22 L15,23 L16,23 L16,24 L17,24 L17,25 L18,25 L18,26 L19,26 L19,27 L20,27 L20,28 L16,28 L16,27 L17,27 L17,26 L16,26 L16,25 L15,25 L15,24 L14,24 L14,23 L13,23 L13,22 L12,22 L12,21 L11,21 L11,20 L9,20 L9,19 L8,19 L8,18 L9,18 L9,17 L8,17 L8,16 L7,16 L7,14 L6,14 L6,13 L4,13 L4,12 L5,12 L5,11 L4,11 L4,10 L3,10 L3,7 L2,7 L2,5 L1,5 L1,3 L0,3 Z " fill="#7A672B" transform="translate(7,83)"/>
<path d="M0,0 L2,0 L2,1 L3,1 L3,10 L2,10 L2,11 L1,11 L1,13 L0,13 L0,14 L-1,14 L-1,15 L-2,15 L-2,13 L-1,13 L-1,10 L0,10 L0,8 L1,8 L1,7 L2,7 L2,5 L-3,5 L-3,6 L-7,6 L-7,5 L-6,5 L-6,4 L-5,4 L-5,3 L-4,3 L-4,2 L-2,2 L-2,1 L0,1 Z " fill="#8C7730" transform="translate(89,22)"/>
<path d="M0,0 L5,0 L5,1 L7,1 L7,2 L8,2 L8,3 L9,3 L9,4 L8,4 L8,6 L7,6 L7,7 L2,7 L2,6 L1,6 L1,4 L2,4 L2,3 L3,3 L3,2 L4,2 L4,1 L2,1 L2,2 L0,2 L0,3 L-1,3 L-1,4 L-2,4 L-2,7 L-3,7 L-3,6 L-4,6 L-4,4 L-3,4 L-3,3 L-2,3 L-2,2 L-1,2 L-1,1 L0,1 Z " fill="#322B15" transform="translate(60,45)"/>
<path d="M0,0 L1,0 L1,1 L2,1 L2,2 L3,2 L3,3 L4,3 L4,4 L5,4 L5,7 L6,7 L6,10 L7,10 L7,11 L8,11 L8,12 L5,12 L5,13 L3,13 L3,12 L2,12 L2,11 L1,11 L1,3 L0,3 Z " fill="#B08D38" transform="translate(46,12)"/>
<path d="M0,0 L7,0 L7,1 L8,1 L8,2 L14,2 L14,3 L-3,3 L-3,4 L-9,4 L-9,3 L-7,3 L-7,1 L0,1 Z " fill="#85702A" transform="translate(59,2)"/>
<path d="M0,0 L7,0 L7,1 L10,1 L10,2 L9,2 L9,3 L10,3 L10,4 L8,4 L8,5 L7,5 L7,7 L5,7 L5,6 L4,6 L4,5 L3,5 L3,4 L1,4 L1,3 L0,3 Z " fill="#77652C" transform="translate(32,71)"/>
<path d="M0,0 L1,0 L1,5 L0,5 L0,6 L-1,6 L-1,7 L0,7 L0,12 L-1,12 L-1,13 L-3,13 L-3,9 L-4,9 L-4,7 L-5,7 L-5,6 L-6,6 L-6,5 L-4,5 L-4,4 L-3,4 L-3,3 L-2,3 L-2,2 L-1,2 L-1,1 L0,1 Z " fill="#D5B55C" transform="translate(54,42)"/>
<path d="M0,0 L2,0 L2,4 L3,4 L3,5 L4,5 L4,6 L3,6 L3,7 L4,7 L4,8 L-1,8 L-1,7 L-5,7 L-5,5 L-4,5 L-4,4 L-3,4 L-3,3 L-2,3 L-2,2 L0,2 Z " fill="#CBAB53" transform="translate(53,64)"/>
<path d="M0,0 L4,0 L4,1 L5,1 L5,2 L4,2 L4,3 L3,3 L3,4 L2,4 L2,5 L1,5 L1,6 L0,6 L0,7 L-2,7 L-2,8 L-3,8 L-3,9 L-4,9 L-4,4 L-3,4 L-3,3 L-2,3 L-2,2 L-1,2 L-1,1 L0,1 Z " fill="#968241" transform="translate(24,15)"/>
<path d="M0,0 L3,0 L3,1 L5,1 L5,2 L7,2 L7,3 L9,3 L9,4 L11,4 L11,5 L13,5 L13,6 L14,6 L14,7 L16,7 L16,8 L17,8 L17,9 L14,9 L14,8 L11,8 L11,7 L10,7 L10,6 L8,6 L8,5 L6,5 L6,4 L4,4 L4,3 L1,3 L1,2 L2,2 L2,1 L0,1 Z " fill="#AC9857" transform="translate(84,5)"/>
<path d="M0,0 L5,0 L5,1 L6,1 L6,0 L10,0 L10,1 L12,1 L12,2 L11,2 L11,3 L14,3 L14,4 L16,4 L16,5 L18,5 L18,6 L20,6 L20,7 L21,7 L21,8 L19,8 L19,7 L17,7 L17,6 L15,6 L15,5 L13,5 L13,4 L10,4 L10,3 L7,3 L7,2 L2,2 L2,1 L0,1 Z " fill="#806C2A" transform="translate(74,5)"/>
<path d="M0,0 L2,0 L2,4 L3,4 L3,7 L2,7 L2,8 L1,8 L1,11 L0,11 L0,10 L-1,10 L-1,7 L-2,7 L-2,1 L0,1 Z " fill="#F3E8AE" transform="translate(24,65)"/>
<path d="M0,0 L1,0 L1,4 L3,4 L3,6 L0,6 L0,7 L-1,7 L-1,9 L-3,9 L-3,12 L-5,12 L-5,10 L-4,10 L-4,6 L-3,6 L-3,4 L-2,4 L-2,2 L-1,2 L-1,1 L0,1 Z " fill="#E1C97B" transform="translate(31,37)"/>
<path d="M0,0 L1,0 L1,1 L4,1 L4,0 L6,0 L6,1 L12,1 L12,2 L6,2 L6,3 L4,3 L4,4 L-4,4 L-4,3 L-5,3 L-5,2 L-1,2 L-1,1 L0,1 Z " fill="#C7A955" transform="translate(43,76)"/>
<path d="M0,0 L2,0 L2,1 L1,1 L1,2 L0,2 L0,3 L-1,3 L-1,4 L-2,4 L-2,5 L-3,5 L-3,6 L-4,6 L-4,7 L-5,7 L-5,8 L-6,8 L-6,9 L-7,9 L-7,10 L-9,10 L-9,9 L-8,9 L-8,6 L-11,6 L-11,5 L-10,5 L-10,4 L-9,4 L-9,3 L-8,3 L-8,2 L-7,2 L-7,6 L-6,6 L-6,5 L-5,5 L-5,4 L-3,4 L-3,3 L-2,3 L-2,2 L-1,2 L-1,1 L0,1 Z " fill="#BAA144" transform="translate(27,18)"/>
<path d="M0,0 L1,0 L1,1 L2,1 L2,2 L3,2 L3,4 L4,4 L4,5 L8,5 L8,6 L9,6 L9,7 L11,7 L11,8 L8,8 L8,7 L2,7 L2,8 L1,8 L1,7 L0,7 Z " fill="#7A682E" transform="translate(30,62)"/>
<path d="M0,0 L1,0 L1,1 L3,1 L3,2 L4,2 L4,4 L5,4 L5,5 L6,5 L6,7 L5,7 L5,6 L3,6 L3,5 L2,5 L2,7 L3,7 L3,9 L4,9 L4,11 L3,11 L3,10 L2,10 L2,8 L1,8 L1,6 L0,6 L0,5 L-1,5 L-1,3 L0,3 Z " fill="#AA923F" transform="translate(112,26)"/>
<path d="M0,0 L2,0 L2,1 L3,1 L3,2 L4,2 L4,4 L5,4 L5,5 L4,5 L4,6 L2,6 L2,7 L0,7 L0,3 L-1,3 L-1,4 L-2,4 L-2,6 L-3,6 L-3,7 L-4,7 L-4,5 L-3,5 L-3,3 L-2,3 L-2,2 L-1,2 L-1,1 L0,1 Z M0,2 L0,3 L1,3 L1,2 Z " fill="#C5A145" transform="translate(85,17)"/>
<path d="M0,0 L3,0 L3,1 L2,1 L2,2 L1,2 L1,3 L-1,3 L-1,4 L-2,4 L-2,5 L-4,5 L-4,6 L-6,6 L-6,7 L-7,7 L-7,8 L-9,8 L-9,7 L-8,7 L-8,5 L-6,5 L-6,4 L-5,4 L-5,2 L-4,2 L-4,1 L0,1 Z " fill="#A89658" transform="translate(101,112)"/>
<path d="M0,0 L1,0 L1,3 L2,3 L2,4 L0,4 L0,6 L1,6 L1,7 L0,7 L0,11 L-1,11 L-1,16 L-2,16 L-2,15 L-3,15 L-3,9 L-2,9 L-2,6 L-1,6 L-1,3 L0,3 Z " fill="#AA9755" transform="translate(6,39)"/>
<path d="M0,0 L1,0 L1,2 L3,2 L3,5 L4,5 L4,8 L5,8 L5,11 L6,11 L6,16 L5,16 L5,12 L3,12 L3,9 L2,9 L2,5 L1,5 L1,3 L0,3 Z " fill="#816B22" transform="translate(119,40)"/>
<path d="M0,0 L1,0 L1,2 L0,2 L0,3 L-1,3 L-1,4 L-2,4 L-2,5 L-3,5 L-3,7 L-4,7 L-4,9 L-5,9 L-5,8 L-6,8 L-6,9 L-7,9 L-7,7 L-8,7 L-8,6 L-7,6 L-7,5 L-6,5 L-6,4 L-5,4 L-5,3 L-3,3 L-3,2 L-2,2 L-2,1 L0,1 Z " fill="#BE9F3A" transform="translate(61,29)"/>
<path d="M0,0 L1,0 L1,8 L2,8 L2,9 L3,9 L3,10 L4,10 L4,11 L2,11 L2,12 L0,12 L0,13 L-1,13 L-1,14 L-2,14 L-2,15 L-3,15 L-3,13 L-2,13 L-2,12 L-1,12 L-1,8 L0,8 Z " fill="#C0A03D" transform="translate(46,15)"/>
<path d="M0,0 L4,0 L4,2 L3,2 L3,3 L5,3 L5,4 L4,4 L4,6 L3,6 L3,7 L2,7 L2,8 L-1,8 L-1,6 L0,6 L0,3 L2,3 L2,1 L0,1 Z " fill="#41361A" transform="translate(38,41)"/>
<path d="M0,0 L4,0 L4,8 L3,8 L3,7 L2,7 L2,6 L1,6 L1,5 L0,5 Z " fill="#806D2F" transform="translate(89,41)"/>
<path d="M0,0 L1,0 L1,2 L0,2 L0,4 L1,4 L1,6 L0,6 L0,7 L-1,7 L-1,8 L-2,8 L-2,9 L-3,9 L-3,10 L-4,10 L-4,5 L-3,5 L-3,4 L-2,4 L-2,3 L-1,3 L-1,1 L0,1 Z " fill="#968448" transform="translate(114,96)"/>
<path d="M0,0 L1,0 L1,3 L0,3 L0,4 L-1,4 L-1,12 L-3,12 L-3,9 L-4,9 L-4,6 L-3,6 L-3,5 L-2,5 L-2,3 L-1,3 L-1,1 L0,1 Z " fill="#867130" transform="translate(80,24)"/>
<path d="M0,0 L1,0 L1,1 L2,1 L2,2 L3,2 L3,3 L4,3 L4,4 L5,4 L5,5 L6,5 L6,6 L7,6 L7,7 L8,7 L8,8 L9,8 L9,9 L8,9 L8,10 L7,10 L7,9 L6,9 L6,8 L5,8 L5,7 L4,7 L4,6 L3,6 L3,5 L2,5 L2,4 L1,4 L1,2 L0,2 Z " fill="#AD9956" transform="translate(102,14)"/>
<path d="M0,0 L4,0 L4,2 L2,2 L2,3 L4,3 L4,4 L1,4 L1,3 L-2,3 L-2,4 L-4,4 L-4,3 L-6,3 L-6,2 L-3,2 L-3,1 L0,1 Z " fill="#A5914E" transform="translate(48,3)"/>
<path d="M0,0 L3,0 L3,2 L2,2 L2,3 L1,3 L1,4 L0,4 L0,6 L-2,6 L-2,7 L-3,7 L-3,8 L-4,8 L-4,6 L-3,6 L-3,3 L-1,3 L-1,1 L0,1 Z " fill="#F4EFCA" transform="translate(31,43)"/>
<path d="M0,0 L1,0 L1,1 L6,1 L6,0 L12,0 L12,1 L10,1 L10,2 L7,2 L7,3 L3,3 L3,2 L0,2 Z " fill="#4D421F" transform="translate(44,72)"/>
<path d="M0,0 L1,0 L1,3 L2,3 L2,1 L3,1 L3,2 L5,2 L5,4 L2,4 L2,5 L3,5 L3,6 L1,6 L1,7 L0,7 L0,5 L-1,5 L-1,2 L0,2 Z " fill="#BBA761" transform="translate(42,64)"/>
<path d="M0,0 L4,0 L4,1 L5,1 L5,2 L6,2 L6,5 L5,5 L5,4 L4,4 L4,3 L3,3 L3,2 L1,2 L1,6 L0,6 L0,2 L-2,2 L-2,1 L0,1 Z " fill="#E4CD80" transform="translate(45,55)"/>
<path d="M0,0 L2,0 L2,1 L3,1 L3,2 L2,2 L2,3 L1,3 L1,5 L2,5 L2,6 L1,6 L1,8 L-1,8 L-1,3 L-2,3 L-2,2 L-1,2 L-1,1 L0,1 Z " fill="#AF8D38" transform="translate(55,46)"/>
<path d="M0,0 L5,0 L5,1 L3,1 L3,3 L6,3 L6,4 L2,4 L2,3 L-1,3 L-1,2 L-4,2 L-4,1 L0,1 Z " fill="#AB9A61" transform="translate(45,121)"/>
<path d="M0,0 L2,0 L2,1 L1,1 L1,2 L-1,2 L-1,4 L-2,4 L-2,5 L-9,5 L-9,4 L-6,4 L-6,3 L-4,3 L-4,2 L-2,2 L-2,1 L0,1 Z " fill="#7F6C2A" transform="translate(94,115)"/>
<path d="M0,0 L6,0 L6,1 L7,1 L7,2 L6,2 L6,4 L7,4 L7,5 L5,5 L5,4 L4,4 L4,3 L2,3 L2,2 L1,2 L1,1 L0,1 Z " fill="#A49255" transform="translate(23,111)"/>
<path d="M0,0 L1,0 L1,2 L3,2 L3,3 L-1,3 L-1,4 L-4,4 L-4,3 L-6,3 L-6,2 L-5,2 L-5,1 L0,1 Z " fill="#D2B96A" transform="translate(80,118)"/>
<path d="M0,0 L2,0 L2,1 L1,1 L1,2 L0,2 L0,3 L-1,3 L-1,4 L-2,4 L-2,5 L-3,5 L-3,6 L-2,6 L-2,7 L-4,7 L-4,5 L-8,5 L-8,4 L-5,4 L-5,3 L-2,3 L-2,2 L-1,2 L-1,1 L0,1 Z " fill="#DABA5E" transform="translate(68,50)"/>
<path d="M0,0 L1,0 L1,2 L2,2 L2,4 L0,4 L0,5 L-1,5 L-1,9 L-2,9 L-2,2 L-1,2 L-1,1 L0,1 Z " fill="#E5CE80" transform="translate(34,44)"/>
<path d="M0,0 L2,0 L2,1 L1,1 L1,2 L2,2 L2,4 L1,4 L1,5 L0,5 L0,6 L-1,6 L-1,5 L-3,5 L-3,3 L-1,3 L-1,1 L0,1 Z " fill="#493F1E" transform="translate(84,33)"/>
</svg>
